# MagicaVoxel @ Ephtracy

# material
mtllib Chandelier.mtl
usemtl palette

# normals
vn -1 0 0
vn 1 0 0
vn 0 0 1
vn 0 0 -1
vn 0 -1 0
vn 0 1 0

# texcoords
vt 0.00976563 0.5
vt 0.103516 0.5
vt 0.341797 0.5

# verts
v -3 0 3
v -3 0 2
v -3 0 -2
v -3 0 -3
v -3 3 2
v -3 3 1
v -3 3 -1
v -3 3 -2
v -3 4 3
v -3 4 1
v -3 4 -1
v -3 4 -3
v -3 18 3
v -3 18 2
v -3 18 -2
v -3 18 -3
v -3 20 3
v -3 20 2
v -3 20 -2
v -3 20 -3
v -3 23 3
v -3 23 2
v -3 23 -2
v -3 23 -3
v -2 18 2
v -2 18 -2
v -2 19 2
v -2 19 -2
v -1 3 1
v -1 3 -1
v -1 4 1
v -1 4 -1
v -1 18 1
v -1 18 -1
v 1 18 3
v 1 18 2
v 1 18 -2
v 1 18 -3
v 1 19 3
v 1 19 2
v 1 19 -2
v 1 19 -3
v 2 0 3
v 2 0 2
v 2 0 -2
v 2 0 -3
v 2 3 2
v 2 3 -2
v 2 4 3
v 2 4 2
v 2 4 -2
v 2 4 -3
v 2 19 3
v 2 19 2
v 2 19 -2
v 2 19 -3
v 2 20 3
v 2 20 2
v 2 20 -2
v 2 20 -3
v 2 23 3
v 2 23 2
v 2 23 -2
v 2 23 -3
v -2 0 3
v -2 0 2
v -2 0 -2
v -2 0 -3
v -2 3 2
v -2 3 -2
v -2 4 3
v -2 4 2
v -2 4 -2
v -2 4 -3
v -2 19 3
v -2 19 2
v -2 19 -2
v -2 19 -3
v -2 20 3
v -2 20 2
v -2 20 -2
v -2 20 -3
v -2 23 3
v -2 23 2
v -2 23 -2
v -2 23 -3
v -1 18 3
v -1 18 2
v -1 18 -2
v -1 18 -3
v -1 19 3
v -1 19 2
v -1 19 -2
v -1 19 -3
v 1 3 1
v 1 3 -1
v 1 4 1
v 1 4 -1
v 1 18 1
v 1 18 -1
v 2 18 2
v 2 18 -2
v 2 19 2
v 2 19 -2
v 3 0 3
v 3 0 2
v 3 0 -2
v 3 0 -3
v 3 3 2
v 3 3 1
v 3 3 -1
v 3 3 -2
v 3 4 3
v 3 4 1
v 3 4 -1
v 3 4 -3
v 3 18 3
v 3 18 2
v 3 18 -2
v 3 18 -3
v 3 20 3
v 3 20 2
v 3 20 -2
v 3 20 -3
v 3 23 3
v 3 23 2
v 3 23 -2
v 3 23 -3
v -3 0 3
v -3 4 3
v -3 18 3
v -3 20 3
v -3 23 3
v -2 0 3
v -2 4 3
v -2 19 3
v -2 20 3
v -2 23 3
v -1 18 3
v -1 19 3
v 1 18 3
v 1 19 3
v 2 0 3
v 2 4 3
v 2 19 3
v 2 20 3
v 2 23 3
v 3 0 3
v 3 4 3
v 3 18 3
v 3 20 3
v 3 23 3
v -2 3 2
v -2 4 2
v -1 18 2
v -1 19 2
v 1 18 2
v 1 19 2
v 2 3 2
v 2 4 2
v -1 4 1
v -1 18 1
v 1 4 1
v 1 18 1
v -3 3 -1
v -3 4 -1
v -1 3 -1
v -1 4 -1
v 1 3 -1
v 1 4 -1
v 3 3 -1
v 3 4 -1
v -3 0 -2
v -3 3 -2
v -3 18 -2
v -3 20 -2
v -3 23 -2
v -2 0 -2
v -2 3 -2
v -2 18 -2
v -2 19 -2
v -2 20 -2
v -2 23 -2
v 2 0 -2
v 2 3 -2
v 2 18 -2
v 2 19 -2
v 2 20 -2
v 2 23 -2
v 3 0 -2
v 3 3 -2
v 3 18 -2
v 3 20 -2
v 3 23 -2
v -3 0 2
v -3 3 2
v -3 18 2
v -3 20 2
v -3 23 2
v -2 0 2
v -2 3 2
v -2 18 2
v -2 19 2
v -2 20 2
v -2 23 2
v 2 0 2
v 2 3 2
v 2 18 2
v 2 19 2
v 2 20 2
v 2 23 2
v 3 0 2
v 3 3 2
v 3 18 2
v 3 20 2
v 3 23 2
v -3 3 1
v -3 4 1
v -1 3 1
v -1 4 1
v 1 3 1
v 1 4 1
v 3 3 1
v 3 4 1
v -1 4 -1
v -1 18 -1
v 1 4 -1
v 1 18 -1
v -2 3 -2
v -2 4 -2
v -1 18 -2
v -1 19 -2
v 1 18 -2
v 1 19 -2
v 2 3 -2
v 2 4 -2
v -3 0 -3
v -3 4 -3
v -3 18 -3
v -3 20 -3
v -3 23 -3
v -2 0 -3
v -2 4 -3
v -2 19 -3
v -2 20 -3
v -2 23 -3
v -1 18 -3
v -1 19 -3
v 1 18 -3
v 1 19 -3
v 2 0 -3
v 2 4 -3
v 2 19 -3
v 2 20 -3
v 2 23 -3
v 3 0 -3
v 3 4 -3
v 3 18 -3
v 3 20 -3
v 3 23 -3
v -3 0 3
v -2 0 3
v 2 0 3
v 3 0 3
v -3 0 2
v -2 0 2
v 2 0 2
v 3 0 2
v -3 0 -2
v -2 0 -2
v 2 0 -2
v 3 0 -2
v -3 0 -3
v -2 0 -3
v 2 0 -3
v 3 0 -3
v -3 3 2
v -2 3 2
v 2 3 2
v 3 3 2
v -3 3 1
v -1 3 1
v 1 3 1
v 3 3 1
v -3 3 -1
v -1 3 -1
v 1 3 -1
v 3 3 -1
v -3 3 -2
v -2 3 -2
v 2 3 -2
v 3 3 -2
v -3 18 3
v -1 18 3
v 1 18 3
v 3 18 3
v -3 18 2
v -2 18 2
v -1 18 2
v 1 18 2
v 2 18 2
v 3 18 2
v -1 18 1
v 1 18 1
v -1 18 -1
v 1 18 -1
v -3 18 -2
v -2 18 -2
v -1 18 -2
v 1 18 -2
v 2 18 -2
v 3 18 -2
v -3 18 -3
v -1 18 -3
v 1 18 -3
v 3 18 -3
v -3 4 3
v -2 4 3
v 2 4 3
v 3 4 3
v -2 4 2
v 2 4 2
v -3 4 1
v -1 4 1
v 1 4 1
v 3 4 1
v -3 4 -1
v -1 4 -1
v 1 4 -1
v 3 4 -1
v -2 4 -2
v 2 4 -2
v -3 4 -3
v -2 4 -3
v 2 4 -3
v 3 4 -3
v -2 19 3
v -1 19 3
v 1 19 3
v 2 19 3
v -2 19 2
v -1 19 2
v 1 19 2
v 2 19 2
v -2 19 -2
v -1 19 -2
v 1 19 -2
v 2 19 -2
v -2 19 -3
v -1 19 -3
v 1 19 -3
v 2 19 -3
v -3 23 3
v -2 23 3
v 2 23 3
v 3 23 3
v -3 23 2
v -2 23 2
v 2 23 2
v 3 23 2
v -3 23 -2
v -2 23 -2
v 2 23 -2
v 3 23 -2
v -3 23 -3
v -2 23 -3
v 2 23 -3
v 3 23 -3

# faces
f 5/3/1 2/3/1 1/3/1
f 8/3/1 4/3/1 3/3/1
f 9/3/1 6/3/1 5/3/1
f 9/3/1 5/3/1 1/3/1
f 10/3/1 6/3/1 9/3/1
f 11/3/1 8/3/1 7/3/1
f 12/3/1 4/3/1 8/3/1
f 12/3/1 8/3/1 11/3/1
f 17/3/1 14/3/1 13/3/1
f 18/3/1 14/3/1 17/3/1
f 19/3/1 16/3/1 15/3/1
f 20/3/1 16/3/1 19/3/1
f 21/1/1 18/1/1 17/1/1
f 22/1/1 18/1/1 21/1/1
f 23/1/1 20/1/1 19/1/1
f 24/1/1 20/1/1 23/1/1
f 27/3/1 26/3/1 25/3/1
f 28/3/1 26/3/1 27/3/1
f 31/2/1 30/2/1 29/2/1
f 32/2/1 30/2/1 31/2/1
f 33/3/1 32/3/1 31/3/1
f 34/3/1 32/3/1 33/3/1
f 39/3/1 36/3/1 35/3/1
f 40/3/1 36/3/1 39/3/1
f 41/3/1 38/3/1 37/3/1
f 42/3/1 38/3/1 41/3/1
f 47/3/1 44/3/1 43/3/1
f 48/3/1 46/3/1 45/3/1
f 49/3/1 47/3/1 43/3/1
f 50/3/1 47/3/1 49/3/1
f 51/3/1 46/3/1 48/3/1
f 52/3/1 46/3/1 51/3/1
f 57/3/1 54/3/1 53/3/1
f 58/3/1 54/3/1 57/3/1
f 59/3/1 56/3/1 55/3/1
f 60/3/1 56/3/1 59/3/1
f 61/1/1 58/1/1 57/1/1
f 62/1/1 58/1/1 61/1/1
f 63/1/1 60/1/1 59/1/1
f 64/1/1 60/1/1 63/1/1
f 65/3/2 66/3/2 69/3/2
f 67/3/2 68/3/2 70/3/2
f 65/3/2 69/3/2 71/3/2
f 71/3/2 69/3/2 72/3/2
f 70/3/2 68/3/2 73/3/2
f 73/3/2 68/3/2 74/3/2
f 75/3/2 76/3/2 79/3/2
f 79/3/2 76/3/2 80/3/2
f 77/3/2 78/3/2 81/3/2
f 81/3/2 78/3/2 82/3/2
f 79/1/2 80/1/2 83/1/2
f 83/1/2 80/1/2 84/1/2
f 81/1/2 82/1/2 85/1/2
f 85/1/2 82/1/2 86/1/2
f 87/3/2 88/3/2 91/3/2
f 91/3/2 88/3/2 92/3/2
f 89/3/2 90/3/2 93/3/2
f 93/3/2 90/3/2 94/3/2
f 95/2/2 96/2/2 97/2/2
f 97/2/2 96/2/2 98/2/2
f 97/3/2 98/3/2 99/3/2
f 99/3/2 98/3/2 100/3/2
f 101/3/2 102/3/2 103/3/2
f 103/3/2 102/3/2 104/3/2
f 105/3/2 106/3/2 109/3/2
f 107/3/2 108/3/2 112/3/2
f 109/3/2 110/3/2 113/3/2
f 105/3/2 109/3/2 113/3/2
f 113/3/2 110/3/2 114/3/2
f 111/3/2 112/3/2 115/3/2
f 112/3/2 108/3/2 116/3/2
f 115/3/2 112/3/2 116/3/2
f 117/3/2 118/3/2 121/3/2
f 121/3/2 118/3/2 122/3/2
f 119/3/2 120/3/2 123/3/2
f 123/3/2 120/3/2 124/3/2
f 121/1/2 122/1/2 125/1/2
f 125/1/2 122/1/2 126/1/2
f 123/1/2 124/1/2 127/1/2
f 127/1/2 124/1/2 128/1/2
f 134/3/3 130/3/3 129/3/3
f 135/3/3 130/3/3 134/3/3
f 136/3/3 132/3/3 131/3/3
f 137/1/3 133/1/3 132/1/3
f 137/3/3 132/3/3 136/3/3
f 138/1/3 133/1/3 137/1/3
f 139/3/3 136/3/3 131/3/3
f 140/3/3 136/3/3 139/3/3
f 145/3/3 142/3/3 141/3/3
f 148/3/3 144/3/3 143/3/3
f 149/3/3 144/3/3 148/3/3
f 150/3/3 145/3/3 141/3/3
f 150/3/3 146/3/3 145/3/3
f 151/1/3 147/1/3 146/1/3
f 151/3/3 146/3/3 150/3/3
f 152/1/3 147/1/3 151/1/3
f 157/3/3 156/3/3 155/3/3
f 158/3/3 156/3/3 157/3/3
f 159/3/3 154/3/3 153/3/3
f 160/3/3 154/3/3 159/3/3
f 163/3/3 162/3/3 161/3/3
f 164/3/3 162/3/3 163/3/3
f 167/3/3 166/3/3 165/3/3
f 168/3/3 166/3/3 167/3/3
f 171/3/3 170/3/3 169/3/3
f 172/3/3 170/3/3 171/3/3
f 178/3/3 174/3/3 173/3/3
f 179/3/3 174/3/3 178/3/3
f 180/3/3 176/3/3 175/3/3
f 181/3/3 176/3/3 180/3/3
f 182/1/3 177/1/3 176/1/3
f 182/3/3 176/3/3 181/3/3
f 183/1/3 177/1/3 182/1/3
f 190/3/3 185/3/3 184/3/3
f 191/3/3 185/3/3 190/3/3
f 192/3/3 187/3/3 186/3/3
f 192/3/3 188/3/3 187/3/3
f 193/1/3 189/1/3 188/1/3
f 193/3/3 188/3/3 192/3/3
f 194/1/3 189/1/3 193/1/3
f 195/3/4 196/3/4 200/3/4
f 200/3/4 196/3/4 201/3/4
f 197/3/4 198/3/4 202/3/4
f 202/3/4 198/3/4 203/3/4
f 198/1/4 199/1/4 204/1/4
f 203/3/4 198/3/4 204/3/4
f 204/1/4 199/1/4 205/1/4
f 206/3/4 207/3/4 212/3/4
f 212/3/4 207/3/4 213/3/4
f 208/3/4 209/3/4 214/3/4
f 209/3/4 210/3/4 214/3/4
f 210/1/4 211/1/4 215/1/4
f 214/3/4 210/3/4 215/3/4
f 215/1/4 211/1/4 216/1/4
f 217/3/4 218/3/4 219/3/4
f 219/3/4 218/3/4 220/3/4
f 221/3/4 222/3/4 223/3/4
f 223/3/4 222/3/4 224/3/4
f 225/3/4 226/3/4 227/3/4
f 227/3/4 226/3/4 228/3/4
f 231/3/4 232/3/4 233/3/4
f 233/3/4 232/3/4 234/3/4
f 229/3/4 230/3/4 235/3/4
f 235/3/4 230/3/4 236/3/4
f 237/3/4 238/3/4 242/3/4
f 242/3/4 238/3/4 243/3/4
f 239/3/4 240/3/4 244/3/4
f 240/1/4 241/1/4 245/1/4
f 244/3/4 240/3/4 245/3/4
f 245/1/4 241/1/4 246/1/4
f 239/3/4 244/3/4 247/3/4
f 247/3/4 244/3/4 248/3/4
f 249/3/4 250/3/4 253/3/4
f 251/3/4 252/3/4 256/3/4
f 256/3/4 252/3/4 257/3/4
f 249/3/4 253/3/4 258/3/4
f 253/3/4 254/3/4 258/3/4
f 254/1/4 255/1/4 259/1/4
f 258/3/4 254/3/4 259/3/4
f 259/1/4 255/1/4 260/1/4
f 265/3/5 262/3/5 261/3/5
f 266/3/5 262/3/5 265/3/5
f 267/3/5 264/3/5 263/3/5
f 268/3/5 264/3/5 267/3/5
f 273/3/5 270/3/5 269/3/5
f 274/3/5 270/3/5 273/3/5
f 275/3/5 272/3/5 271/3/5
f 276/3/5 272/3/5 275/3/5
f 281/3/5 278/3/5 277/3/5
f 281/3/5 280/3/5 279/3/5
f 281/3/5 279/3/5 278/3/5
f 282/3/5 280/3/5 281/3/5
f 283/3/5 280/3/5 282/3/5
f 284/3/5 280/3/5 283/3/5
f 286/2/5 283/2/5 282/2/5
f 287/2/5 283/2/5 286/2/5
f 289/3/5 286/3/5 285/3/5
f 289/3/5 288/3/5 287/3/5
f 289/3/5 287/3/5 286/3/5
f 290/3/5 288/3/5 289/3/5
f 291/3/5 288/3/5 290/3/5
f 292/3/5 288/3/5 291/3/5
f 297/3/5 294/3/5 293/3/5
f 298/3/5 294/3/5 297/3/5
f 299/3/5 294/3/5 298/3/5
f 300/3/5 296/3/5 295/3/5
f 301/3/5 296/3/5 300/3/5
f 302/3/5 296/3/5 301/3/5
f 303/3/5 299/3/5 298/3/5
f 303/3/5 301/3/5 300/3/5
f 303/3/5 300/3/5 299/3/5
f 304/3/5 301/3/5 303/3/5
f 305/3/5 303/3/5 298/3/5
f 306/3/5 301/3/5 304/3/5
f 308/3/5 305/3/5 298/3/5
f 308/3/5 306/3/5 305/3/5
f 309/3/5 306/3/5 308/3/5
f 310/3/5 301/3/5 306/3/5
f 310/3/5 306/3/5 309/3/5
f 311/3/5 301/3/5 310/3/5
f 313/3/5 309/3/5 308/3/5
f 313/3/5 308/3/5 307/3/5
f 314/3/5 309/3/5 313/3/5
f 315/3/5 312/3/5 311/3/5
f 315/3/5 311/3/5 310/3/5
f 316/3/5 312/3/5 315/3/5
f 317/3/6 318/3/6 321/3/6
f 319/3/6 320/3/6 322/3/6
f 317/3/6 321/3/6 323/3/6
f 321/3/6 322/3/6 323/3/6
f 323/3/6 322/3/6 324/3/6
f 324/3/6 322/3/6 325/3/6
f 322/3/6 320/3/6 326/3/6
f 325/3/6 322/3/6 326/3/6
f 327/3/6 328/3/6 331/3/6
f 329/3/6 330/3/6 331/3/6
f 328/3/6 329/3/6 331/3/6
f 331/3/6 330/3/6 332/3/6
f 327/3/6 331/3/6 333/3/6
f 333/3/6 331/3/6 334/3/6
f 332/3/6 330/3/6 335/3/6
f 335/3/6 330/3/6 336/3/6
f 337/3/6 338/3/6 341/3/6
f 341/3/6 338/3/6 342/3/6
f 339/3/6 340/3/6 343/3/6
f 343/3/6 340/3/6 344/3/6
f 341/3/6 342/3/6 345/3/6
f 342/3/6 343/3/6 345/3/6
f 343/3/6 344/3/6 345/3/6
f 345/3/6 344/3/6 346/3/6
f 346/3/6 344/3/6 347/3/6
f 347/3/6 344/3/6 348/3/6
f 345/3/6 346/3/6 349/3/6
f 349/3/6 346/3/6 350/3/6
f 347/3/6 348/3/6 351/3/6
f 351/3/6 348/3/6 352/3/6
f 353/1/6 354/1/6 357/1/6
f 357/1/6 354/1/6 358/1/6
f 355/1/6 356/1/6 359/1/6
f 359/1/6 356/1/6 360/1/6
f 361/1/6 362/1/6 365/1/6
f 365/1/6 362/1/6 366/1/6
f 363/1/6 364/1/6 367/1/6
f 367/1/6 364/1/6 368/1/6
