# MagicaVoxel @ Ephtracy

# material
mtllib Handle.mtl
usemtl palette

# normals
vn -1 0 0
vn 1 0 0
vn 0 0 1
vn 0 0 -1
vn 0 -1 0
vn 0 1 0

# texcoords
vt 0.00585938 0.5
vt 0.0253906 0.5
vt 0.0332031 0.5

# verts
v -9 16 3.5
v -9 16 -0.5
v -9 17 3.5
v -9 17 -0.5
v -8 16 -0.5
v -8 16 -2.5
v -8 17 -0.5
v -8 17 -2.5
v -7 16 -2.5
v -7 16 -3.5
v -7 17 -2.5
v -7 17 -3.5
v -4 2 -2.5
v -4 2 -3.5
v -4 8 -2.5
v -4 8 -3.5
v -3 0 -2.5
v -3 0 -3.5
v -3 2 -2.5
v -3 2 -3.5
v -3 8 -2.5
v -3 8 -3.5
v -3 10 -2.5
v -3 10 -3.5
v -3 15 -2.5
v -3 15 -3.5
v -3 16 -2.5
v -3 16 -3.5
v -1 10 -2.5
v -1 10 -3.5
v -1 15 -2.5
v -1 15 -3.5
v 2 0 -2.5
v 2 0 -3.5
v 2 9 -2.5
v 2 9 -3.5
v 2 16 -2.5
v 2 16 -3.5
v 2 17 -2.5
v 2 17 -3.5
v 6 16 -1.5
v 6 16 -2.5
v 6 17 -1.5
v 6 17 -2.5
v 7 16 3.5
v 7 16 -0.5
v 7 16 -1.5
v 7 17 3.5
v 7 17 -0.5
v 7 17 -1.5
v -7 16 3.5
v -7 16 -0.5
v -7 16 -1.5
v -7 17 3.5
v -7 17 -0.5
v -7 17 -1.5
v -6 16 -1.5
v -6 16 -2.5
v -6 17 -1.5
v -6 17 -2.5
v -2 0 -2.5
v -2 0 -3.5
v -2 9 -2.5
v -2 9 -3.5
v -2 16 -2.5
v -2 16 -3.5
v -2 17 -2.5
v -2 17 -3.5
v 1 10 -2.5
v 1 10 -3.5
v 1 15 -2.5
v 1 15 -3.5
v 3 0 -2.5
v 3 0 -3.5
v 3 2 -2.5
v 3 2 -3.5
v 3 8 -2.5
v 3 8 -3.5
v 3 10 -2.5
v 3 10 -3.5
v 3 15 -2.5
v 3 15 -3.5
v 3 16 -2.5
v 3 16 -3.5
v 4 2 -2.5
v 4 2 -3.5
v 4 8 -2.5
v 4 8 -3.5
v 7 16 -2.5
v 7 16 -3.5
v 7 17 -2.5
v 7 17 -3.5
v 8 16 -0.5
v 8 16 -2.5
v 8 17 -0.5
v 8 17 -2.5
v 9 16 3.5
v 9 16 -0.5
v 9 17 3.5
v 9 17 -0.5
v -9 16 3.5
v -9 17 3.5
v -7 16 3.5
v -7 17 3.5
v 7 16 3.5
v 7 17 3.5
v 9 16 3.5
v 9 17 3.5
v -7 16 -1.5
v -7 17 -1.5
v -6 16 -1.5
v -6 17 -1.5
v 6 16 -1.5
v 6 17 -1.5
v 7 16 -1.5
v 7 17 -1.5
v -6 16 -2.5
v -6 17 -2.5
v -4 2 -2.5
v -4 8 -2.5
v -3 0 -2.5
v -3 2 -2.5
v -3 8 -2.5
v -3 10 -2.5
v -3 15 -2.5
v -3 16 -2.5
v -2 0 -2.5
v -2 9 -2.5
v -2 16 -2.5
v -2 17 -2.5
v -1 10 -2.5
v -1 15 -2.5
v 1 10 -2.5
v 1 15 -2.5
v 2 0 -2.5
v 2 9 -2.5
v 2 16 -2.5
v 2 17 -2.5
v 3 0 -2.5
v 3 2 -2.5
v 3 8 -2.5
v 3 10 -2.5
v 3 15 -2.5
v 3 16 -2.5
v 4 2 -2.5
v 4 8 -2.5
v 6 16 -2.5
v 6 17 -2.5
v -9 16 -0.5
v -9 17 -0.5
v -8 16 -0.5
v -8 17 -0.5
v 8 16 -0.5
v 8 17 -0.5
v 9 16 -0.5
v 9 17 -0.5
v -8 16 -2.5
v -8 17 -2.5
v -7 16 -2.5
v -7 17 -2.5
v 7 16 -2.5
v 7 17 -2.5
v 8 16 -2.5
v 8 17 -2.5
v -7 16 -3.5
v -7 17 -3.5
v -4 2 -3.5
v -4 8 -3.5
v -3 0 -3.5
v -3 2 -3.5
v -3 8 -3.5
v -3 10 -3.5
v -3 15 -3.5
v -3 16 -3.5
v -2 0 -3.5
v -2 9 -3.5
v -2 16 -3.5
v -2 17 -3.5
v -1 10 -3.5
v -1 15 -3.5
v 1 10 -3.5
v 1 15 -3.5
v 2 0 -3.5
v 2 9 -3.5
v 2 16 -3.5
v 2 17 -3.5
v 3 0 -3.5
v 3 2 -3.5
v 3 8 -3.5
v 3 10 -3.5
v 3 15 -3.5
v 3 16 -3.5
v 4 2 -3.5
v 4 8 -3.5
v 7 16 -3.5
v 7 17 -3.5
v -3 0 -2.5
v -2 0 -2.5
v 2 0 -2.5
v 3 0 -2.5
v -3 0 -3.5
v -2 0 -3.5
v 2 0 -3.5
v 3 0 -3.5
v -4 2 -2.5
v -3 2 -2.5
v 3 2 -2.5
v 4 2 -2.5
v -4 2 -3.5
v -3 2 -3.5
v 3 2 -3.5
v 4 2 -3.5
v -2 9 -2.5
v 2 9 -2.5
v -2 9 -3.5
v 2 9 -3.5
v -3 15 -2.5
v -1 15 -2.5
v 1 15 -2.5
v 3 15 -2.5
v -3 15 -3.5
v -1 15 -3.5
v 1 15 -3.5
v 3 15 -3.5
v -9 16 3.5
v -7 16 3.5
v 7 16 3.5
v 9 16 3.5
v -9 16 -0.5
v -8 16 -0.5
v -7 16 -0.5
v 7 16 -0.5
v 8 16 -0.5
v 9 16 -0.5
v -7 16 -1.5
v -6 16 -1.5
v 6 16 -1.5
v 7 16 -1.5
v -8 16 -2.5
v -7 16 -2.5
v -6 16 -2.5
v -3 16 -2.5
v 3 16 -2.5
v 6 16 -2.5
v 7 16 -2.5
v 8 16 -2.5
v -7 16 -3.5
v -3 16 -3.5
v 3 16 -3.5
v 7 16 -3.5
v -4 8 -2.5
v -3 8 -2.5
v 3 8 -2.5
v 4 8 -2.5
v -4 8 -3.5
v -3 8 -3.5
v 3 8 -3.5
v 4 8 -3.5
v -3 10 -2.5
v -1 10 -2.5
v 1 10 -2.5
v 3 10 -2.5
v -3 10 -3.5
v -1 10 -3.5
v 1 10 -3.5
v 3 10 -3.5
v -2 16 -2.5
v 2 16 -2.5
v -2 16 -3.5
v 2 16 -3.5
v -9 17 3.5
v -7 17 3.5
v 7 17 3.5
v 9 17 3.5
v -9 17 -0.5
v -8 17 -0.5
v -7 17 -0.5
v 7 17 -0.5
v 8 17 -0.5
v 9 17 -0.5
v -7 17 -1.5
v -6 17 -1.5
v 6 17 -1.5
v 7 17 -1.5
v -8 17 -2.5
v -7 17 -2.5
v -6 17 -2.5
v -2 17 -2.5
v 2 17 -2.5
v 6 17 -2.5
v 7 17 -2.5
v 8 17 -2.5
v -7 17 -3.5
v -2 17 -3.5
v 2 17 -3.5
v 7 17 -3.5

# faces
f 3/1/1 2/1/1 1/1/1
f 4/1/1 2/1/1 3/1/1
f 7/3/1 6/3/1 5/3/1
f 8/3/1 6/3/1 7/3/1
f 11/3/1 10/3/1 9/3/1
f 12/3/1 10/3/1 11/3/1
f 15/2/1 14/2/1 13/2/1
f 16/2/1 14/2/1 15/2/1
f 19/3/1 18/3/1 17/3/1
f 20/3/1 18/3/1 19/3/1
f 23/3/1 22/3/1 21/3/1
f 24/3/1 22/3/1 23/3/1
f 27/3/1 26/3/1 25/3/1
f 28/3/1 26/3/1 27/3/1
f 31/3/1 30/3/1 29/3/1
f 32/3/1 30/3/1 31/3/1
f 35/3/1 34/3/1 33/3/1
f 36/3/1 34/3/1 35/3/1
f 39/3/1 38/3/1 37/3/1
f 40/3/1 38/3/1 39/3/1
f 43/3/1 42/3/1 41/3/1
f 44/3/1 42/3/1 43/3/1
f 48/1/1 46/1/1 45/1/1
f 49/3/1 47/3/1 46/3/1
f 49/1/1 46/1/1 48/1/1
f 50/3/1 47/3/1 49/3/1
f 51/1/2 52/1/2 54/1/2
f 52/3/2 53/3/2 55/3/2
f 54/1/2 52/1/2 55/1/2
f 55/3/2 53/3/2 56/3/2
f 57/3/2 58/3/2 59/3/2
f 59/3/2 58/3/2 60/3/2
f 61/3/2 62/3/2 63/3/2
f 63/3/2 62/3/2 64/3/2
f 65/3/2 66/3/2 67/3/2
f 67/3/2 66/3/2 68/3/2
f 69/3/2 70/3/2 71/3/2
f 71/3/2 70/3/2 72/3/2
f 73/3/2 74/3/2 75/3/2
f 75/3/2 74/3/2 76/3/2
f 77/3/2 78/3/2 79/3/2
f 79/3/2 78/3/2 80/3/2
f 81/3/2 82/3/2 83/3/2
f 83/3/2 82/3/2 84/3/2
f 85/2/2 86/2/2 87/2/2
f 87/2/2 86/2/2 88/2/2
f 89/3/2 90/3/2 91/3/2
f 91/3/2 90/3/2 92/3/2
f 93/3/2 94/3/2 95/3/2
f 95/3/2 94/3/2 96/3/2
f 97/1/2 98/1/2 99/1/2
f 99/1/2 98/1/2 100/1/2
f 103/1/3 102/1/3 101/1/3
f 104/1/3 102/1/3 103/1/3
f 107/1/3 106/1/3 105/1/3
f 108/1/3 106/1/3 107/1/3
f 111/3/3 110/3/3 109/3/3
f 112/3/3 110/3/3 111/3/3
f 115/3/3 114/3/3 113/3/3
f 116/3/3 114/3/3 115/3/3
f 122/2/3 120/2/3 119/2/3
f 123/2/3 120/2/3 122/2/3
f 126/3/3 118/3/3 117/3/3
f 127/3/3 124/3/3 123/3/3
f 127/3/3 122/3/3 121/3/3
f 127/3/3 123/3/3 122/3/3
f 128/3/3 124/3/3 127/3/3
f 129/3/3 126/3/3 125/3/3
f 129/3/3 118/3/3 126/3/3
f 130/3/3 118/3/3 129/3/3
f 131/3/3 124/3/3 128/3/3
f 132/3/3 129/3/3 125/3/3
f 133/3/3 131/3/3 128/3/3
f 133/3/3 132/3/3 131/3/3
f 134/3/3 129/3/3 132/3/3
f 134/3/3 132/3/3 133/3/3
f 136/3/3 133/3/3 128/3/3
f 137/3/3 129/3/3 134/3/3
f 139/3/3 136/3/3 135/3/3
f 140/3/3 136/3/3 139/3/3
f 141/3/3 136/3/3 140/3/3
f 142/3/3 133/3/3 136/3/3
f 142/3/3 136/3/3 141/3/3
f 143/3/3 138/3/3 137/3/3
f 143/3/3 137/3/3 134/3/3
f 144/3/3 138/3/3 143/3/3
f 145/2/3 141/2/3 140/2/3
f 146/2/3 141/2/3 145/2/3
f 147/3/3 138/3/3 144/3/3
f 148/3/3 138/3/3 147/3/3
f 149/1/4 150/1/4 151/1/4
f 151/1/4 150/1/4 152/1/4
f 153/1/4 154/1/4 155/1/4
f 155/1/4 154/1/4 156/1/4
f 157/3/4 158/3/4 159/3/4
f 159/3/4 158/3/4 160/3/4
f 161/3/4 162/3/4 163/3/4
f 163/3/4 162/3/4 164/3/4
f 167/2/4 168/2/4 170/2/4
f 170/2/4 168/2/4 171/2/4
f 165/3/4 166/3/4 174/3/4
f 171/3/4 172/3/4 175/3/4
f 169/3/4 170/3/4 175/3/4
f 170/3/4 171/3/4 175/3/4
f 175/3/4 172/3/4 176/3/4
f 173/3/4 174/3/4 177/3/4
f 174/3/4 166/3/4 177/3/4
f 177/3/4 166/3/4 178/3/4
f 176/3/4 172/3/4 179/3/4
f 173/3/4 177/3/4 180/3/4
f 176/3/4 179/3/4 181/3/4
f 179/3/4 180/3/4 181/3/4
f 180/3/4 177/3/4 182/3/4
f 181/3/4 180/3/4 182/3/4
f 176/3/4 181/3/4 184/3/4
f 182/3/4 177/3/4 185/3/4
f 183/3/4 184/3/4 187/3/4
f 187/3/4 184/3/4 188/3/4
f 188/3/4 184/3/4 189/3/4
f 184/3/4 181/3/4 190/3/4
f 189/3/4 184/3/4 190/3/4
f 185/3/4 186/3/4 191/3/4
f 182/3/4 185/3/4 191/3/4
f 191/3/4 186/3/4 192/3/4
f 188/2/4 189/2/4 193/2/4
f 193/2/4 189/2/4 194/2/4
f 192/3/4 186/3/4 195/3/4
f 195/3/4 186/3/4 196/3/4
f 201/3/5 198/3/5 197/3/5
f 202/3/5 198/3/5 201/3/5
f 203/3/5 200/3/5 199/3/5
f 204/3/5 200/3/5 203/3/5
f 209/2/5 206/2/5 205/2/5
f 210/2/5 206/2/5 209/2/5
f 211/2/5 208/2/5 207/2/5
f 212/2/5 208/2/5 211/2/5
f 215/3/5 214/3/5 213/3/5
f 216/3/5 214/3/5 215/3/5
f 221/3/5 218/3/5 217/3/5
f 222/3/5 218/3/5 221/3/5
f 223/3/5 220/3/5 219/3/5
f 224/3/5 220/3/5 223/3/5
f 229/1/5 226/1/5 225/1/5
f 230/1/5 226/1/5 229/1/5
f 231/1/5 226/1/5 230/1/5
f 232/1/5 228/1/5 227/1/5
f 233/1/5 228/1/5 232/1/5
f 234/1/5 228/1/5 233/1/5
f 235/3/5 231/3/5 230/3/5
f 238/3/5 233/3/5 232/3/5
f 239/3/5 236/3/5 235/3/5
f 239/3/5 235/3/5 230/3/5
f 240/3/5 236/3/5 239/3/5
f 241/3/5 236/3/5 240/3/5
f 244/3/5 238/3/5 237/3/5
f 245/3/5 233/3/5 238/3/5
f 245/3/5 238/3/5 244/3/5
f 246/3/5 233/3/5 245/3/5
f 247/3/5 242/3/5 241/3/5
f 247/3/5 241/3/5 240/3/5
f 248/3/5 242/3/5 247/3/5
f 249/3/5 244/3/5 243/3/5
f 249/3/5 245/3/5 244/3/5
f 250/3/5 245/3/5 249/3/5
f 251/2/6 252/2/6 255/2/6
f 255/2/6 252/2/6 256/2/6
f 253/2/6 254/2/6 257/2/6
f 257/2/6 254/2/6 258/2/6
f 259/3/6 260/3/6 263/3/6
f 263/3/6 260/3/6 264/3/6
f 261/3/6 262/3/6 265/3/6
f 265/3/6 262/3/6 266/3/6
f 267/3/6 268/3/6 269/3/6
f 269/3/6 268/3/6 270/3/6
f 271/1/6 272/1/6 275/1/6
f 275/1/6 272/1/6 276/1/6
f 276/1/6 272/1/6 277/1/6
f 273/1/6 274/1/6 278/1/6
f 278/1/6 274/1/6 279/1/6
f 279/1/6 274/1/6 280/1/6
f 276/3/6 277/3/6 281/3/6
f 278/3/6 279/3/6 284/3/6
f 281/3/6 282/3/6 285/3/6
f 276/3/6 281/3/6 285/3/6
f 285/3/6 282/3/6 286/3/6
f 286/3/6 282/3/6 287/3/6
f 283/3/6 284/3/6 290/3/6
f 284/3/6 279/3/6 291/3/6
f 290/3/6 284/3/6 291/3/6
f 291/3/6 279/3/6 292/3/6
f 287/3/6 288/3/6 293/3/6
f 286/3/6 287/3/6 293/3/6
f 293/3/6 288/3/6 294/3/6
f 289/3/6 290/3/6 295/3/6
f 290/3/6 291/3/6 295/3/6
f 295/3/6 291/3/6 296/3/6
