# MagicaVoxel @ Ephtracy

# material
mtllib Wall5.mtl
usemtl palette

# normals
vn -1 0 0
vn 1 0 0
vn 0 0 1
vn 0 0 -1
vn 0 -1 0
vn 0 1 0

# texcoords
vt 0.0566406 0.5
vt 0.306641 0.5
vt 0.310547 0.5
vt 0.970703 0.5
vt 0.974609 0.5

# verts
v -20 0 20
v -20 0 18
v -20 0 14
v -20 0 -14
v -20 0 -18
v -20 0 -20
v -20 2 20
v -20 2 18
v -20 2 -18
v -20 2 -20
v -20 12 18
v -20 12 17
v -20 13 18
v -20 13 17
v -20 21 18
v -20 21 14
v -20 21 -14
v -20 21 -18
v 20 0 20
v 20 0 18
v 20 0 14
v 20 0 -14
v 20 0 -18
v 20 0 -20
v 20 2 20
v 20 2 18
v 20 2 -18
v 20 2 -20
v 20 21 18
v 20 21 14
v 20 21 -14
v 20 21 -18
v -20 0 20
v -20 2 20
v -10 1 20
v -10 2 20
v -6 1 20
v -6 2 20
v -3 1 20
v -3 2 20
v 1 1 20
v 1 2 20
v 8 0 20
v 8 1 20
v 13 0 20
v 13 1 20
v 20 0 20
v 20 2 20
v -20 2 18
v -20 12 18
v -20 13 18
v -20 21 18
v -18 11 18
v -18 12 18
v -18 13 18
v -17 11 18
v -17 12 18
v -15 7 18
v -15 8 18
v -15 16 18
v -15 17 18
v -12 6 18
v -12 7 18
v -12 8 18
v -12 15 18
v -12 16 18
v -12 17 18
v -10 6 18
v -10 7 18
v -10 15 18
v -10 16 18
v -7 10 18
v -7 11 18
v -1 10 18
v -1 11 18
v 4 16 18
v 4 17 18
v 5 5 18
v 5 6 18
v 7 5 18
v 7 6 18
v 7 7 18
v 7 16 18
v 7 17 18
v 9 6 18
v 9 7 18
v 12 10 18
v 12 11 18
v 18 10 18
v 18 11 18
v 20 2 18
v 20 21 18
v -20 2 -18
v -20 21 -18
v -14 2 -18
v -14 10 -18
v -14 11 -18
v -12 2 -18
v -11 16 -18
v -11 17 -18
v -9 10 -18
v -9 11 -18
v -7 6 -18
v -7 7 -18
v -7 16 -18
v -7 17 -18
v 0 6 -18
v 0 7 -18
v 0 13 -18
v 0 14 -18
v 7 13 -18
v 7 14 -18
v 9 16 -18
v 9 17 -18
v 12 9 -18
v 12 10 -18
v 13 16 -18
v 13 17 -18
v 14 9 -18
v 14 10 -18
v 14 11 -18
v 16 10 -18
v 16 11 -18
v 20 2 -18
v 20 21 -18
v -20 0 -20
v -20 2 -20
v -16 1 -20
v -16 2 -20
v -14 1 -20
v -14 2 -20
v -7 0 -20
v -7 1 -20
v -4 0 -20
v -4 1 -20
v 1 1 -20
v 1 2 -20
v 4 1 -20
v 4 2 -20
v 9 1 -20
v 9 2 -20
v 14 1 -20
v 14 2 -20
v 20 0 -20
v 20 2 -20
v -20 0 20
v 8 0 20
v 13 0 20
v 20 0 20
v 8 0 19
v 13 0 19
v -20 0 18
v 20 0 18
v -20 0 14
v 20 0 14
v -20 0 -14
v 20 0 -14
v -20 0 -18
v 20 0 -18
v -7 0 -19
v -4 0 -19
v -20 0 -20
v -7 0 -20
v -4 0 -20
v 20 0 -20
v -20 2 20
v -10 2 20
v -6 2 20
v -3 2 20
v 1 2 20
v 20 2 20
v -10 2 19
v -6 2 19
v -3 2 19
v 1 2 19
v -20 2 18
v 20 2 18
v -20 2 -18
v -14 2 -18
v -12 2 -18
v 20 2 -18
v -16 2 -19
v -14 2 -19
v -12 2 -19
v 1 2 -19
v 4 2 -19
v 9 2 -19
v 14 2 -19
v -20 2 -20
v -16 2 -20
v -14 2 -20
v 1 2 -20
v 4 2 -20
v 9 2 -20
v 14 2 -20
v 20 2 -20
v -20 21 18
v 20 21 18
v -20 21 14
v 20 21 14
v -20 21 -14
v 20 21 -14
v -20 21 -18
v 20 21 -18

# faces
f 7/3/1 2/3/1 1/3/1
f 8/4/1 3/4/1 2/4/1
f 8/3/1 2/3/1 7/3/1
f 9/3/1 6/3/1 5/3/1
f 9/4/1 5/4/1 4/4/1
f 10/3/1 6/3/1 9/3/1
f 11/4/1 3/4/1 8/4/1
f 12/4/1 3/4/1 11/4/1
f 13/5/1 12/5/1 11/5/1
f 14/4/1 3/4/1 12/4/1
f 14/5/1 12/5/1 13/5/1
f 15/4/1 14/4/1 13/4/1
f 16/1/1 4/1/1 3/1/1
f 16/4/1 14/4/1 15/4/1
f 16/4/1 3/4/1 14/4/1
f 17/4/1 9/4/1 4/4/1
f 17/1/1 4/1/1 16/1/1
f 18/4/1 9/4/1 17/4/1
f 19/3/2 20/3/2 25/3/2
f 20/4/2 21/4/2 26/4/2
f 25/3/2 20/3/2 26/3/2
f 23/3/2 24/3/2 27/3/2
f 22/4/2 23/4/2 27/4/2
f 27/3/2 24/3/2 28/3/2
f 26/4/2 21/4/2 29/4/2
f 21/1/2 22/1/2 30/1/2
f 29/4/2 21/4/2 30/4/2
f 22/4/2 27/4/2 31/4/2
f 30/1/2 22/1/2 31/1/2
f 31/4/2 27/4/2 32/4/2
f 35/3/3 34/3/3 33/3/3
f 36/3/3 34/3/3 35/3/3
f 37/3/3 35/3/3 33/3/3
f 37/2/3 36/2/3 35/2/3
f 38/2/3 36/2/3 37/2/3
f 39/3/3 37/3/3 33/3/3
f 39/3/3 38/3/3 37/3/3
f 40/3/3 38/3/3 39/3/3
f 41/3/3 39/3/3 33/3/3
f 41/2/3 40/2/3 39/2/3
f 42/2/3 40/2/3 41/2/3
f 43/3/3 41/3/3 33/3/3
f 43/3/3 42/3/3 41/3/3
f 44/3/3 42/3/3 43/3/3
f 45/2/3 44/2/3 43/2/3
f 46/3/3 42/3/3 44/3/3
f 46/2/3 44/2/3 45/2/3
f 47/3/3 46/3/3 45/3/3
f 48/3/3 42/3/3 46/3/3
f 48/3/3 46/3/3 47/3/3
f 53/4/3 50/4/3 49/4/3
f 54/5/3 51/5/3 50/5/3
f 54/4/3 50/4/3 53/4/3
f 55/4/3 52/4/3 51/4/3
f 55/5/3 51/5/3 54/5/3
f 56/5/3 54/5/3 53/5/3
f 56/4/3 53/4/3 49/4/3
f 57/4/3 55/4/3 54/4/3
f 57/5/3 54/5/3 56/5/3
f 58/4/3 56/4/3 49/4/3
f 58/4/3 57/4/3 56/4/3
f 59/4/3 57/4/3 58/4/3
f 60/4/3 52/4/3 55/4/3
f 60/4/3 57/4/3 59/4/3
f 60/4/3 55/4/3 57/4/3
f 61/4/3 52/4/3 60/4/3
f 62/4/3 58/4/3 49/4/3
f 63/5/3 59/5/3 58/5/3
f 63/4/3 58/4/3 62/4/3
f 64/4/3 60/4/3 59/4/3
f 64/5/3 59/5/3 63/5/3
f 65/4/3 60/4/3 64/4/3
f 66/5/3 61/5/3 60/5/3
f 66/4/3 60/4/3 65/4/3
f 67/4/3 52/4/3 61/4/3
f 67/5/3 61/5/3 66/5/3
f 68/4/3 62/4/3 49/4/3
f 68/5/3 63/5/3 62/5/3
f 69/4/3 65/4/3 64/4/3
f 69/5/3 63/5/3 68/5/3
f 69/4/3 64/4/3 63/4/3
f 70/5/3 66/5/3 65/5/3
f 70/4/3 65/4/3 69/4/3
f 71/4/3 67/4/3 66/4/3
f 71/5/3 66/5/3 70/5/3
f 72/4/3 69/4/3 68/4/3
f 72/4/3 70/4/3 69/4/3
f 72/4/3 71/4/3 70/4/3
f 73/4/3 71/4/3 72/4/3
f 74/4/3 72/4/3 68/4/3
f 74/5/3 73/5/3 72/5/3
f 75/4/3 71/4/3 73/4/3
f 75/5/3 73/5/3 74/5/3
f 76/4/3 67/4/3 71/4/3
f 76/4/3 71/4/3 75/4/3
f 76/4/3 75/4/3 74/4/3
f 77/4/3 52/4/3 67/4/3
f 77/4/3 67/4/3 76/4/3
f 78/4/3 76/4/3 74/4/3
f 78/4/3 74/4/3 68/4/3
f 78/4/3 68/4/3 49/4/3
f 79/4/3 76/4/3 78/4/3
f 80/4/3 78/4/3 49/4/3
f 80/5/3 79/5/3 78/5/3
f 81/4/3 76/4/3 79/4/3
f 81/5/3 79/5/3 80/5/3
f 82/4/3 76/4/3 81/4/3
f 83/5/3 77/5/3 76/5/3
f 83/4/3 76/4/3 82/4/3
f 84/4/3 52/4/3 77/4/3
f 84/5/3 77/5/3 83/5/3
f 85/5/3 82/5/3 81/5/3
f 85/4/3 81/4/3 80/4/3
f 86/4/3 83/4/3 82/4/3
f 86/5/3 82/5/3 85/5/3
f 86/4/3 84/4/3 83/4/3
f 87/4/3 86/4/3 85/4/3
f 87/4/3 84/4/3 86/4/3
f 88/4/3 84/4/3 87/4/3
f 89/4/3 87/4/3 85/4/3
f 89/5/3 88/5/3 87/5/3
f 90/4/3 84/4/3 88/4/3
f 90/5/3 88/5/3 89/5/3
f 91/4/3 85/4/3 80/4/3
f 91/4/3 80/4/3 49/4/3
f 91/4/3 90/4/3 89/4/3
f 91/4/3 89/4/3 85/4/3
f 92/4/3 84/4/3 90/4/3
f 92/4/3 90/4/3 91/4/3
f 92/4/3 52/4/3 84/4/3
f 93/4/4 94/4/4 95/4/4
f 95/4/4 94/4/4 96/4/4
f 96/4/4 94/4/4 97/4/4
f 95/4/4 96/4/4 98/4/4
f 97/4/4 94/4/4 99/4/4
f 99/4/4 94/4/4 100/4/4
f 98/4/4 96/4/4 101/4/4
f 96/5/4 97/5/4 101/5/4
f 97/4/4 99/4/4 102/4/4
f 101/5/4 97/5/4 102/5/4
f 98/4/4 101/4/4 103/4/4
f 101/4/4 102/4/4 103/4/4
f 103/4/4 102/4/4 104/4/4
f 99/5/4 100/5/4 105/5/4
f 104/4/4 102/4/4 105/4/4
f 102/4/4 99/4/4 105/4/4
f 100/4/4 94/4/4 106/4/4
f 105/5/4 100/5/4 106/5/4
f 103/5/4 104/5/4 107/5/4
f 98/4/4 103/4/4 107/4/4
f 104/4/4 105/4/4 108/4/4
f 107/5/4 104/5/4 108/5/4
f 105/4/4 106/4/4 108/4/4
f 108/4/4 106/4/4 109/4/4
f 109/4/4 106/4/4 110/4/4
f 107/4/4 108/4/4 111/4/4
f 108/4/4 109/4/4 111/4/4
f 109/5/4 110/5/4 111/5/4
f 110/4/4 106/4/4 112/4/4
f 111/5/4 110/5/4 112/5/4
f 111/4/4 112/4/4 113/4/4
f 112/4/4 106/4/4 113/4/4
f 106/4/4 94/4/4 114/4/4
f 113/4/4 106/4/4 114/4/4
f 111/4/4 113/4/4 115/4/4
f 107/4/4 111/4/4 115/4/4
f 115/4/4 113/4/4 116/4/4
f 113/5/4 114/5/4 117/5/4
f 116/4/4 113/4/4 117/4/4
f 114/4/4 94/4/4 118/4/4
f 117/5/4 114/5/4 118/5/4
f 115/5/4 116/5/4 119/5/4
f 107/4/4 115/4/4 119/4/4
f 116/4/4 117/4/4 120/4/4
f 119/5/4 116/5/4 120/5/4
f 117/4/4 118/4/4 120/4/4
f 120/4/4 118/4/4 121/4/4
f 119/4/4 120/4/4 122/4/4
f 120/5/4 121/5/4 122/5/4
f 121/4/4 118/4/4 123/4/4
f 122/5/4 121/5/4 123/5/4
f 98/4/4 107/4/4 124/4/4
f 107/4/4 119/4/4 124/4/4
f 122/4/4 123/4/4 124/4/4
f 119/4/4 122/4/4 124/4/4
f 123/4/4 118/4/4 125/4/4
f 124/4/4 123/4/4 125/4/4
f 118/4/4 94/4/4 125/4/4
f 126/3/4 127/3/4 128/3/4
f 128/3/4 127/3/4 129/3/4
f 126/3/4 128/3/4 130/3/4
f 128/2/4 129/2/4 130/2/4
f 130/2/4 129/2/4 131/2/4
f 126/3/4 130/3/4 132/3/4
f 130/3/4 131/3/4 132/3/4
f 132/3/4 131/3/4 133/3/4
f 132/2/4 133/2/4 134/2/4
f 133/3/4 131/3/4 135/3/4
f 134/2/4 133/2/4 135/2/4
f 134/3/4 135/3/4 136/3/4
f 135/3/4 131/3/4 136/3/4
f 136/3/4 131/3/4 137/3/4
f 134/3/4 136/3/4 138/3/4
f 136/2/4 137/2/4 138/2/4
f 138/2/4 137/2/4 139/2/4
f 134/3/4 138/3/4 140/3/4
f 138/3/4 139/3/4 140/3/4
f 140/3/4 139/3/4 141/3/4
f 134/3/4 140/3/4 142/3/4
f 140/2/4 141/2/4 142/2/4
f 142/2/4 141/2/4 143/2/4
f 134/3/4 142/3/4 144/3/4
f 142/3/4 143/3/4 144/3/4
f 144/3/4 143/3/4 145/3/4
f 150/3/5 147/3/5 146/3/5
f 150/2/5 148/2/5 147/2/5
f 151/3/5 149/3/5 148/3/5
f 151/2/5 148/2/5 150/2/5
f 152/3/5 150/3/5 146/3/5
f 152/3/5 151/3/5 150/3/5
f 153/3/5 149/3/5 151/3/5
f 153/3/5 151/3/5 152/3/5
f 154/4/5 153/4/5 152/4/5
f 155/4/5 153/4/5 154/4/5
f 156/1/5 155/1/5 154/1/5
f 157/1/5 155/1/5 156/1/5
f 158/4/5 157/4/5 156/4/5
f 159/4/5 157/4/5 158/4/5
f 160/3/5 159/3/5 158/3/5
f 161/3/5 159/3/5 160/3/5
f 162/3/5 160/3/5 158/3/5
f 163/2/5 161/2/5 160/2/5
f 163/3/5 160/3/5 162/3/5
f 164/3/5 159/3/5 161/3/5
f 164/2/5 161/2/5 163/2/5
f 165/3/5 159/3/5 164/3/5
f 166/3/6 167/3/6 172/3/6
f 167/2/6 168/2/6 172/2/6
f 168/3/6 169/3/6 173/3/6
f 172/2/6 168/2/6 173/2/6
f 169/2/6 170/2/6 174/2/6
f 173/3/6 169/3/6 174/3/6
f 170/3/6 171/3/6 175/3/6
f 174/2/6 170/2/6 175/2/6
f 173/3/6 174/3/6 176/3/6
f 172/3/6 173/3/6 176/3/6
f 174/3/6 175/3/6 176/3/6
f 166/3/6 172/3/6 176/3/6
f 175/3/6 171/3/6 177/3/6
f 176/3/6 175/3/6 177/3/6
f 178/3/6 179/3/6 182/3/6
f 179/2/6 180/2/6 183/2/6
f 182/3/6 179/3/6 183/3/6
f 180/3/6 181/3/6 184/3/6
f 183/2/6 180/2/6 184/2/6
f 184/3/6 181/3/6 185/3/6
f 185/3/6 181/3/6 186/3/6
f 186/3/6 181/3/6 187/3/6
f 187/3/6 181/3/6 188/3/6
f 178/3/6 182/3/6 189/3/6
f 182/2/6 183/2/6 190/2/6
f 189/3/6 182/3/6 190/3/6
f 183/3/6 184/3/6 191/3/6
f 190/2/6 183/2/6 191/2/6
f 184/3/6 185/3/6 191/3/6
f 185/2/6 186/2/6 192/2/6
f 191/3/6 185/3/6 192/3/6
f 186/3/6 187/3/6 193/3/6
f 192/2/6 186/2/6 193/2/6
f 187/2/6 188/2/6 194/2/6
f 193/3/6 187/3/6 194/3/6
f 188/3/6 181/3/6 195/3/6
f 194/2/6 188/2/6 195/2/6
f 195/3/6 181/3/6 196/3/6
f 197/4/6 198/4/6 199/4/6
f 199/4/6 198/4/6 200/4/6
f 199/1/6 200/1/6 201/1/6
f 201/1/6 200/1/6 202/1/6
f 201/4/6 202/4/6 203/4/6
f 203/4/6 202/4/6 204/4/6
