# MagicaVoxel @ Ephtracy

# material
mtllib Wall1.mtl
usemtl palette

# normals
vn -1 0 0
vn 1 0 0
vn 0 0 1
vn 0 0 -1
vn 0 -1 0
vn 0 1 0

# texcoords
vt 0.0566406 0.5
vt 0.306641 0.5
vt 0.310547 0.5
vt 0.970703 0.5
vt 0.974609 0.5

# verts
v -20 0 20
v -20 0 -14
v -20 0 -18
v -20 0 -20
v -20 2 -18
v -20 2 -20
v -20 21 20
v -20 21 -14
v -20 21 -18
v 20 0 20
v 20 0 -14
v 20 0 -18
v 20 0 -20
v 20 2 -18
v 20 2 -20
v 20 21 20
v 20 21 -14
v 20 21 -18
v -20 0 20
v -20 21 20
v 20 0 20
v 20 21 20
v -20 2 -18
v -20 21 -18
v -14 2 -18
v -14 10 -18
v -14 11 -18
v -12 2 -18
v -11 16 -18
v -11 17 -18
v -9 10 -18
v -9 11 -18
v -7 6 -18
v -7 7 -18
v -7 16 -18
v -7 17 -18
v 0 6 -18
v 0 7 -18
v 0 13 -18
v 0 14 -18
v 7 13 -18
v 7 14 -18
v 9 16 -18
v 9 17 -18
v 12 9 -18
v 12 10 -18
v 13 16 -18
v 13 17 -18
v 14 9 -18
v 14 10 -18
v 14 11 -18
v 16 10 -18
v 16 11 -18
v 20 2 -18
v 20 21 -18
v -20 0 -20
v -20 2 -20
v -16 1 -20
v -16 2 -20
v -14 1 -20
v -14 2 -20
v -7 0 -20
v -7 1 -20
v -4 0 -20
v -4 1 -20
v 1 1 -20
v 1 2 -20
v 4 1 -20
v 4 2 -20
v 9 1 -20
v 9 2 -20
v 14 1 -20
v 14 2 -20
v 20 0 -20
v 20 2 -20
v -20 0 20
v 20 0 20
v -20 0 -14
v 20 0 -14
v -20 0 -18
v 20 0 -18
v -7 0 -19
v -4 0 -19
v -20 0 -20
v -7 0 -20
v -4 0 -20
v 20 0 -20
v -20 2 -18
v -14 2 -18
v -12 2 -18
v 20 2 -18
v -16 2 -19
v -14 2 -19
v -12 2 -19
v 1 2 -19
v 4 2 -19
v 9 2 -19
v 14 2 -19
v -20 2 -20
v -16 2 -20
v -14 2 -20
v 1 2 -20
v 4 2 -20
v 9 2 -20
v 14 2 -20
v 20 2 -20
v -20 21 20
v 20 21 20
v -20 21 -14
v 20 21 -14
v -20 21 -18
v 20 21 -18

# faces
f 5/4/1 3/4/1 2/4/1
f 5/3/1 4/3/1 3/3/1
f 6/3/1 4/3/1 5/3/1
f 7/1/1 2/1/1 1/1/1
f 8/4/1 5/4/1 2/4/1
f 8/1/1 2/1/1 7/1/1
f 9/4/1 5/4/1 8/4/1
f 11/4/2 12/4/2 14/4/2
f 12/3/2 13/3/2 14/3/2
f 14/3/2 13/3/2 15/3/2
f 10/1/2 11/1/2 16/1/2
f 11/4/2 14/4/2 17/4/2
f 16/1/2 11/1/2 17/1/2
f 17/4/2 14/4/2 18/4/2
f 21/1/3 20/1/3 19/1/3
f 22/1/3 20/1/3 21/1/3
f 23/4/4 24/4/4 25/4/4
f 25/4/4 24/4/4 26/4/4
f 26/4/4 24/4/4 27/4/4
f 25/4/4 26/4/4 28/4/4
f 27/4/4 24/4/4 29/4/4
f 29/4/4 24/4/4 30/4/4
f 28/4/4 26/4/4 31/4/4
f 26/5/4 27/5/4 31/5/4
f 27/4/4 29/4/4 32/4/4
f 31/5/4 27/5/4 32/5/4
f 28/4/4 31/4/4 33/4/4
f 31/4/4 32/4/4 33/4/4
f 33/4/4 32/4/4 34/4/4
f 29/5/4 30/5/4 35/5/4
f 34/4/4 32/4/4 35/4/4
f 32/4/4 29/4/4 35/4/4
f 30/4/4 24/4/4 36/4/4
f 35/5/4 30/5/4 36/5/4
f 33/5/4 34/5/4 37/5/4
f 28/4/4 33/4/4 37/4/4
f 34/4/4 35/4/4 38/4/4
f 37/5/4 34/5/4 38/5/4
f 35/4/4 36/4/4 38/4/4
f 38/4/4 36/4/4 39/4/4
f 39/4/4 36/4/4 40/4/4
f 37/4/4 38/4/4 41/4/4
f 38/4/4 39/4/4 41/4/4
f 39/5/4 40/5/4 41/5/4
f 40/4/4 36/4/4 42/4/4
f 41/5/4 40/5/4 42/5/4
f 41/4/4 42/4/4 43/4/4
f 42/4/4 36/4/4 43/4/4
f 36/4/4 24/4/4 44/4/4
f 43/4/4 36/4/4 44/4/4
f 41/4/4 43/4/4 45/4/4
f 37/4/4 41/4/4 45/4/4
f 45/4/4 43/4/4 46/4/4
f 43/5/4 44/5/4 47/5/4
f 46/4/4 43/4/4 47/4/4
f 44/4/4 24/4/4 48/4/4
f 47/5/4 44/5/4 48/5/4
f 45/5/4 46/5/4 49/5/4
f 37/4/4 45/4/4 49/4/4
f 46/4/4 47/4/4 50/4/4
f 49/5/4 46/5/4 50/5/4
f 47/4/4 48/4/4 50/4/4
f 50/4/4 48/4/4 51/4/4
f 49/4/4 50/4/4 52/4/4
f 50/5/4 51/5/4 52/5/4
f 51/4/4 48/4/4 53/4/4
f 52/5/4 51/5/4 53/5/4
f 28/4/4 37/4/4 54/4/4
f 37/4/4 49/4/4 54/4/4
f 52/4/4 53/4/4 54/4/4
f 49/4/4 52/4/4 54/4/4
f 53/4/4 48/4/4 55/4/4
f 54/4/4 53/4/4 55/4/4
f 48/4/4 24/4/4 55/4/4
f 56/3/4 57/3/4 58/3/4
f 58/3/4 57/3/4 59/3/4
f 56/3/4 58/3/4 60/3/4
f 58/2/4 59/2/4 60/2/4
f 60/2/4 59/2/4 61/2/4
f 56/3/4 60/3/4 62/3/4
f 60/3/4 61/3/4 62/3/4
f 62/3/4 61/3/4 63/3/4
f 62/2/4 63/2/4 64/2/4
f 63/3/4 61/3/4 65/3/4
f 64/2/4 63/2/4 65/2/4
f 64/3/4 65/3/4 66/3/4
f 65/3/4 61/3/4 66/3/4
f 66/3/4 61/3/4 67/3/4
f 64/3/4 66/3/4 68/3/4
f 66/2/4 67/2/4 68/2/4
f 68/2/4 67/2/4 69/2/4
f 64/3/4 68/3/4 70/3/4
f 68/3/4 69/3/4 70/3/4
f 70/3/4 69/3/4 71/3/4
f 64/3/4 70/3/4 72/3/4
f 70/2/4 71/2/4 72/2/4
f 72/2/4 71/2/4 73/2/4
f 64/3/4 72/3/4 74/3/4
f 72/3/4 73/3/4 74/3/4
f 74/3/4 73/3/4 75/3/4
f 78/1/5 77/1/5 76/1/5
f 79/1/5 77/1/5 78/1/5
f 80/4/5 79/4/5 78/4/5
f 81/4/5 79/4/5 80/4/5
f 82/3/5 81/3/5 80/3/5
f 83/3/5 81/3/5 82/3/5
f 84/3/5 82/3/5 80/3/5
f 85/2/5 83/2/5 82/2/5
f 85/3/5 82/3/5 84/3/5
f 86/3/5 81/3/5 83/3/5
f 86/2/5 83/2/5 85/2/5
f 87/3/5 81/3/5 86/3/5
f 88/3/6 89/3/6 92/3/6
f 89/2/6 90/2/6 93/2/6
f 92/3/6 89/3/6 93/3/6
f 90/3/6 91/3/6 94/3/6
f 93/2/6 90/2/6 94/2/6
f 94/3/6 91/3/6 95/3/6
f 95/3/6 91/3/6 96/3/6
f 96/3/6 91/3/6 97/3/6
f 97/3/6 91/3/6 98/3/6
f 88/3/6 92/3/6 99/3/6
f 92/2/6 93/2/6 100/2/6
f 99/3/6 92/3/6 100/3/6
f 93/3/6 94/3/6 101/3/6
f 100/2/6 93/2/6 101/2/6
f 94/3/6 95/3/6 101/3/6
f 95/2/6 96/2/6 102/2/6
f 101/3/6 95/3/6 102/3/6
f 96/3/6 97/3/6 103/3/6
f 102/2/6 96/2/6 103/2/6
f 97/2/6 98/2/6 104/2/6
f 103/3/6 97/3/6 104/3/6
f 98/3/6 91/3/6 105/3/6
f 104/2/6 98/2/6 105/2/6
f 105/3/6 91/3/6 106/3/6
f 107/1/6 108/1/6 109/1/6
f 109/1/6 108/1/6 110/1/6
f 109/4/6 110/4/6 111/4/6
f 111/4/6 110/4/6 112/4/6
