# MagicaVoxel @ Ephtracy

# material
mtllib Wall0-2.mtl
usemtl palette

# normals
vn -1 0 0
vn 1 0 0
vn 0 0 1
vn 0 0 -1
vn 0 -1 0
vn 0 1 0

# texcoords
vt 0.0566406 0.5
vt 0.310547 0.5
vt 0.970703 0.5
vt 0.974609 0.5

# verts
v -20 0 20
v -20 0 18
v -20 0 14
v -20 0 -20
v -20 2 20
v -20 2 18
v -20 17 18
v -20 17 17
v -20 18 18
v -20 18 17
v -20 21 18
v -20 21 14
v -20 21 -20
v -18 2 20
v -18 2 18
v -18 9 19
v -18 9 18
v -18 10 19
v -18 10 18
v -18 21 20
v -18 21 18
v 18 2 20
v 18 2 18
v 18 6 19
v 18 6 18
v 18 7 19
v 18 7 18
v 18 15 19
v 18 15 18
v 18 16 19
v 18 16 18
v 18 21 20
v 18 21 18
v 20 0 20
v 20 0 18
v 20 0 14
v 20 0 -20
v 20 2 20
v 20 2 18
v 20 21 18
v 20 21 14
v 20 21 -20
v -20 0 20
v -20 2 20
v -18 0 20
v -18 2 20
v -18 21 20
v -14 0 20
v -14 21 20
v 14 0 20
v 14 21 20
v 18 0 20
v 18 2 20
v 18 21 20
v 20 0 20
v 20 2 20
v -20 2 18
v -20 17 18
v -20 18 18
v -20 21 18
v -19 17 18
v -19 18 18
v -18 2 18
v -18 9 18
v -18 10 18
v -18 21 18
v 18 2 18
v 18 6 18
v 18 7 18
v 18 15 18
v 18 16 18
v 18 21 18
v 20 2 18
v 20 21 18
v -20 0 -20
v -20 21 -20
v 20 0 -20
v 20 21 -20
v -20 0 20
v -18 0 20
v -14 0 20
v 14 0 20
v 18 0 20
v 20 0 20
v -20 0 18
v -18 0 18
v 18 0 18
v 20 0 18
v -20 0 14
v -14 0 14
v 14 0 14
v 20 0 14
v -20 0 -20
v 20 0 -20
v -20 2 20
v -18 2 20
v 18 2 20
v 20 2 20
v -20 2 18
v -18 2 18
v 18 2 18
v 20 2 18
v -18 21 20
v -14 21 20
v 14 21 20
v 18 21 20
v -20 21 18
v -18 21 18
v 18 21 18
v 20 21 18
v -20 21 14
v -14 21 14
v 14 21 14
v 20 21 14
v -20 21 -20
v 20 21 -20

# faces
f 5/2/1 2/2/1 1/2/1
f 6/3/1 3/3/1 2/3/1
f 6/2/1 2/2/1 5/2/1
f 7/3/1 3/3/1 6/3/1
f 8/3/1 3/3/1 7/3/1
f 9/4/1 8/4/1 7/4/1
f 10/3/1 3/3/1 8/3/1
f 10/4/1 8/4/1 9/4/1
f 11/3/1 10/3/1 9/3/1
f 12/1/1 4/1/1 3/1/1
f 12/3/1 10/3/1 11/3/1
f 12/3/1 3/3/1 10/3/1
f 13/1/1 4/1/1 12/1/1
f 16/3/1 15/3/1 14/3/1
f 17/3/1 15/3/1 16/3/1
f 18/3/1 16/3/1 14/3/1
f 18/4/1 17/4/1 16/4/1
f 19/4/1 17/4/1 18/4/1
f 20/3/1 18/3/1 14/3/1
f 20/3/1 19/3/1 18/3/1
f 21/3/1 19/3/1 20/3/1
f 22/3/2 23/3/2 24/3/2
f 24/3/2 23/3/2 25/3/2
f 22/3/2 24/3/2 26/3/2
f 24/4/2 25/4/2 26/4/2
f 26/4/2 25/4/2 27/4/2
f 22/3/2 26/3/2 28/3/2
f 26/3/2 27/3/2 28/3/2
f 28/3/2 27/3/2 29/3/2
f 22/3/2 28/3/2 30/3/2
f 28/4/2 29/4/2 30/4/2
f 30/4/2 29/4/2 31/4/2
f 22/3/2 30/3/2 32/3/2
f 30/3/2 31/3/2 32/3/2
f 32/3/2 31/3/2 33/3/2
f 34/2/2 35/2/2 38/2/2
f 35/3/2 36/3/2 39/3/2
f 38/2/2 35/2/2 39/2/2
f 39/3/2 36/3/2 40/3/2
f 36/1/2 37/1/2 41/1/2
f 40/3/2 36/3/2 41/3/2
f 41/1/2 37/1/2 42/1/2
f 45/2/3 44/2/3 43/2/3
f 46/2/3 44/2/3 45/2/3
f 48/3/3 46/3/3 45/3/3
f 48/3/3 47/3/3 46/3/3
f 49/3/3 47/3/3 48/3/3
f 50/1/3 49/1/3 48/1/3
f 51/1/3 49/1/3 50/1/3
f 52/3/3 51/3/3 50/3/3
f 53/3/3 51/3/3 52/3/3
f 54/3/3 51/3/3 53/3/3
f 55/2/3 53/2/3 52/2/3
f 56/2/3 53/2/3 55/2/3
f 61/3/3 58/3/3 57/3/3
f 61/4/3 59/4/3 58/4/3
f 62/3/3 60/3/3 59/3/3
f 62/4/3 59/4/3 61/4/3
f 63/3/3 61/3/3 57/3/3
f 63/3/3 62/3/3 61/3/3
f 64/3/3 62/3/3 63/3/3
f 65/3/3 62/3/3 64/3/3
f 66/3/3 60/3/3 62/3/3
f 66/3/3 62/3/3 65/3/3
f 73/3/3 68/3/3 67/3/3
f 73/3/3 72/3/3 71/3/3
f 73/3/3 71/3/3 70/3/3
f 73/3/3 70/3/3 69/3/3
f 73/3/3 69/3/3 68/3/3
f 74/3/3 72/3/3 73/3/3
f 75/1/4 76/1/4 77/1/4
f 77/1/4 76/1/4 78/1/4
f 85/2/5 80/2/5 79/2/5
f 86/3/5 81/3/5 80/3/5
f 86/2/5 80/2/5 85/2/5
f 87/2/5 84/2/5 83/2/5
f 87/3/5 83/3/5 82/3/5
f 88/2/5 84/2/5 87/2/5
f 89/3/5 86/3/5 85/3/5
f 90/3/5 81/3/5 86/3/5
f 90/3/5 86/3/5 89/3/5
f 90/1/5 82/1/5 81/1/5
f 91/3/5 88/3/5 87/3/5
f 91/1/5 82/1/5 90/1/5
f 91/3/5 87/3/5 82/3/5
f 92/3/5 88/3/5 91/3/5
f 93/1/5 90/1/5 89/1/5
f 93/1/5 91/1/5 90/1/5
f 93/1/5 92/1/5 91/1/5
f 94/1/5 92/1/5 93/1/5
f 95/2/6 96/2/6 99/2/6
f 99/2/6 96/2/6 100/2/6
f 97/2/6 98/2/6 101/2/6
f 101/2/6 98/2/6 102/2/6
f 103/3/6 104/3/6 108/3/6
f 105/3/6 106/3/6 109/3/6
f 107/3/6 108/3/6 111/3/6
f 104/1/6 105/1/6 112/1/6
f 111/3/6 108/3/6 112/3/6
f 108/3/6 104/3/6 112/3/6
f 109/3/6 110/3/6 113/3/6
f 112/1/6 105/1/6 113/1/6
f 105/3/6 109/3/6 113/3/6
f 113/3/6 110/3/6 114/3/6
f 111/1/6 112/1/6 115/1/6
f 112/1/6 113/1/6 115/1/6
f 113/1/6 114/1/6 115/1/6
f 115/1/6 114/1/6 116/1/6
