# MagicaVoxel @ Ephtracy

# material
mtllib Wall4.mtl
usemtl palette

# normals
vn -1 0 0
vn 1 0 0
vn 0 0 1
vn 0 0 -1
vn 0 -1 0
vn 0 1 0

# texcoords
vt 0.0566406 0.5
vt 0.306641 0.5
vt 0.310547 0.5
vt 0.970703 0.5
vt 0.974609 0.5

# verts
v -20 0 20
v -20 0 17
v -20 0 14
v -20 0 -20
v -20 1 19
v -20 1 18
v -20 1 17
v -20 1 14
v -20 1 3
v -20 1 -1
v -20 1 -9
v -20 1 -12
v -20 2 20
v -20 2 19
v -20 2 18
v -20 2 3
v -20 2 -1
v -20 2 -9
v -20 2 -12
v -20 2 -20
v -18 2 18
v -18 2 -18
v -18 12 -11
v -18 12 -12
v -18 13 -11
v -18 13 -12
v -18 13 -14
v -18 14 -12
v -18 14 -14
v -18 16 -4
v -18 16 -9
v -18 17 -4
v -18 17 -9
v -18 21 18
v -18 21 -18
v 18 2 18
v 18 2 -18
v 18 7 -8
v 18 7 -12
v 18 8 3
v 18 8 -0
v 18 8 -8
v 18 8 -12
v 18 9 6
v 18 9 3
v 18 9 -0
v 18 10 6
v 18 10 3
v 18 13 10
v 18 13 5
v 18 14 10
v 18 14 5
v 18 15 -4
v 18 15 -8
v 18 16 17
v 18 16 12
v 18 16 -4
v 18 16 -8
v 18 17 17
v 18 17 12
v 18 21 18
v 18 21 -18
v 20 0 20
v 20 0 -20
v 20 1 20
v 20 1 19
v 20 1 17
v 20 1 14
v 20 1 5
v 20 1 2
v 20 1 -6
v 20 1 -9
v 20 1 -12
v 20 1 -16
v 20 2 20
v 20 2 19
v 20 2 17
v 20 2 14
v 20 2 5
v 20 2 2
v 20 2 -6
v 20 2 -9
v 20 2 -12
v 20 2 -16
v 20 2 -20
v -20 0 20
v -20 2 20
v -19 1 20
v -19 2 20
v -18 1 20
v -18 2 20
v -14 1 20
v -14 2 20
v -10 1 20
v -10 2 20
v 0 1 20
v 0 2 20
v 3 1 20
v 3 2 20
v 18 0 20
v 18 1 20
v 19 0 20
v 19 1 20
v 19 2 20
v 20 0 20
v 20 1 20
v 20 2 20
v -18 2 18
v -18 21 18
v -17 7 18
v -17 8 18
v -14 7 18
v -14 8 18
v -12 16 18
v -12 17 18
v -9 16 18
v -9 17 18
v -9 18 18
v -6 17 18
v -6 18 18
v -5 14 18
v -5 15 18
v 3 14 18
v 3 15 18
v 5 9 18
v 5 10 18
v 9 9 18
v 9 10 18
v 11 2 18
v 14 2 18
v 18 2 18
v 18 21 18
v -18 2 -18
v -18 21 -18
v -14 2 -18
v -14 10 -18
v -14 11 -18
v -12 2 -18
v -11 16 -18
v -11 17 -18
v -9 10 -18
v -9 11 -18
v -7 6 -18
v -7 7 -18
v -7 16 -18
v -7 17 -18
v 0 6 -18
v 0 7 -18
v 0 13 -18
v 0 14 -18
v 7 13 -18
v 7 14 -18
v 9 16 -18
v 9 17 -18
v 12 9 -18
v 12 10 -18
v 13 16 -18
v 13 17 -18
v 14 9 -18
v 14 10 -18
v 14 11 -18
v 16 10 -18
v 16 11 -18
v 18 2 -18
v 18 21 -18
v -20 0 -20
v -20 2 -20
v -16 1 -20
v -16 2 -20
v -14 1 -20
v -14 2 -20
v -7 0 -20
v -7 1 -20
v -4 0 -20
v -4 1 -20
v 1 1 -20
v 1 2 -20
v 4 1 -20
v 4 2 -20
v 9 1 -20
v 9 2 -20
v 14 1 -20
v 14 2 -20
v 20 0 -20
v 20 2 -20
v -20 0 20
v 18 0 20
v 19 0 20
v 20 0 20
v 18 0 19
v 19 0 19
v -18 0 18
v 18 0 18
v -20 0 17
v -19 0 17
v -20 0 14
v -19 0 14
v -14 0 14
v 14 0 14
v -14 0 -14
v 14 0 -14
v -18 0 -18
v 18 0 -18
v -7 0 -19
v -4 0 -19
v -20 0 -20
v -7 0 -20
v -4 0 -20
v 20 0 -20
v -20 2 20
v -19 2 20
v -18 2 20
v -14 2 20
v -10 2 20
v 0 2 20
v 3 2 20
v 19 2 20
v 20 2 20
v -20 2 19
v -19 2 19
v -18 2 19
v -14 2 19
v -10 2 19
v 0 2 19
v 3 2 19
v 11 2 19
v 14 2 19
v 19 2 19
v 20 2 19
v -20 2 18
v -19 2 18
v -18 2 18
v 11 2 18
v 14 2 18
v 18 2 18
v 19 2 17
v 20 2 17
v 19 2 14
v 20 2 14
v 19 2 5
v 20 2 5
v -20 2 3
v -19 2 3
v 19 2 2
v 20 2 2
v -20 2 -1
v -19 2 -1
v 19 2 -6
v 20 2 -6
v -20 2 -9
v -19 2 -9
v 19 2 -9
v 20 2 -9
v -20 2 -12
v -19 2 -12
v 19 2 -12
v 20 2 -12
v 19 2 -16
v 20 2 -16
v -18 2 -18
v -14 2 -18
v -12 2 -18
v 18 2 -18
v -16 2 -19
v -14 2 -19
v -12 2 -19
v 1 2 -19
v 4 2 -19
v 9 2 -19
v 14 2 -19
v -20 2 -20
v -16 2 -20
v -14 2 -20
v 1 2 -20
v 4 2 -20
v 9 2 -20
v 14 2 -20
v 20 2 -20
v -18 21 18
v 18 21 18
v -14 21 14
v 14 21 14
v -14 21 -14
v 14 21 -14
v -18 21 -18
v 18 21 -18

# faces
f 5/3/1 2/3/1 1/3/1
f 6/3/1 2/3/1 5/3/1
f 7/2/1 3/2/1 2/2/1
f 7/3/1 2/3/1 6/3/1
f 8/3/1 4/3/1 3/3/1
f 8/2/1 3/2/1 7/2/1
f 9/3/1 4/3/1 8/3/1
f 10/3/1 4/3/1 9/3/1
f 11/3/1 4/3/1 10/3/1
f 12/3/1 4/3/1 11/3/1
f 13/3/1 5/3/1 1/3/1
f 14/2/1 6/2/1 5/2/1
f 14/3/1 5/3/1 13/3/1
f 15/3/1 7/3/1 6/3/1
f 15/2/1 6/2/1 14/2/1
f 15/3/1 8/3/1 7/3/1
f 15/3/1 9/3/1 8/3/1
f 16/2/1 10/2/1 9/2/1
f 16/3/1 9/3/1 15/3/1
f 17/3/1 11/3/1 10/3/1
f 17/2/1 10/2/1 16/2/1
f 18/2/1 12/2/1 11/2/1
f 18/3/1 11/3/1 17/3/1
f 19/3/1 4/3/1 12/3/1
f 19/2/1 12/2/1 18/2/1
f 20/3/1 4/3/1 19/3/1
f 23/4/1 22/4/1 21/4/1
f 24/4/1 22/4/1 23/4/1
f 25/4/1 23/4/1 21/4/1
f 25/5/1 24/5/1 23/5/1
f 26/4/1 22/4/1 24/4/1
f 26/5/1 24/5/1 25/5/1
f 27/4/1 22/4/1 26/4/1
f 28/4/1 26/4/1 25/4/1
f 28/5/1 27/5/1 26/5/1
f 29/4/1 22/4/1 27/4/1
f 29/5/1 27/5/1 28/5/1
f 30/4/1 25/4/1 21/4/1
f 30/4/1 28/4/1 25/4/1
f 30/4/1 29/4/1 28/4/1
f 31/4/1 29/4/1 30/4/1
f 32/4/1 30/4/1 21/4/1
f 32/5/1 31/5/1 30/5/1
f 33/4/1 29/4/1 31/4/1
f 33/5/1 31/5/1 32/5/1
f 34/4/1 32/4/1 21/4/1
f 34/4/1 33/4/1 32/4/1
f 35/4/1 22/4/1 29/4/1
f 35/4/1 33/4/1 34/4/1
f 35/4/1 29/4/1 33/4/1
f 36/4/2 37/4/2 38/4/2
f 38/4/2 37/4/2 39/4/2
f 36/4/2 38/4/2 40/4/2
f 40/4/2 38/4/2 41/4/2
f 38/5/2 39/5/2 42/5/2
f 41/4/2 38/4/2 42/4/2
f 39/4/2 37/4/2 43/4/2
f 42/5/2 39/5/2 43/5/2
f 36/4/2 40/4/2 44/4/2
f 40/5/2 41/5/2 45/5/2
f 44/4/2 40/4/2 45/4/2
f 41/4/2 42/4/2 46/4/2
f 45/5/2 41/5/2 46/5/2
f 42/4/2 43/4/2 46/4/2
f 44/5/2 45/5/2 47/5/2
f 36/4/2 44/4/2 47/4/2
f 45/4/2 46/4/2 48/4/2
f 47/5/2 45/5/2 48/5/2
f 36/4/2 47/4/2 49/4/2
f 47/4/2 48/4/2 49/4/2
f 49/4/2 48/4/2 50/4/2
f 36/4/2 49/4/2 51/4/2
f 49/5/2 50/5/2 51/5/2
f 50/4/2 48/4/2 52/4/2
f 51/5/2 50/5/2 52/5/2
f 46/4/2 43/4/2 53/4/2
f 52/4/2 48/4/2 53/4/2
f 51/4/2 52/4/2 53/4/2
f 48/4/2 46/4/2 53/4/2
f 53/4/2 43/4/2 54/4/2
f 36/4/2 51/4/2 55/4/2
f 51/4/2 53/4/2 55/4/2
f 55/4/2 53/4/2 56/4/2
f 53/5/2 54/5/2 57/5/2
f 56/4/2 53/4/2 57/4/2
f 54/4/2 43/4/2 58/4/2
f 57/5/2 54/5/2 58/5/2
f 55/5/2 56/5/2 59/5/2
f 36/4/2 55/4/2 59/4/2
f 56/4/2 57/4/2 60/4/2
f 59/5/2 56/5/2 60/5/2
f 57/4/2 58/4/2 60/4/2
f 36/4/2 59/4/2 61/4/2
f 59/4/2 60/4/2 61/4/2
f 60/4/2 58/4/2 62/4/2
f 61/4/2 60/4/2 62/4/2
f 43/4/2 37/4/2 62/4/2
f 58/4/2 43/4/2 62/4/2
f 63/3/2 64/3/2 65/3/2
f 65/3/2 64/3/2 66/3/2
f 66/3/2 64/3/2 67/3/2
f 67/3/2 64/3/2 68/3/2
f 68/3/2 64/3/2 69/3/2
f 69/3/2 64/3/2 70/3/2
f 70/3/2 64/3/2 71/3/2
f 71/3/2 64/3/2 72/3/2
f 72/3/2 64/3/2 73/3/2
f 73/3/2 64/3/2 74/3/2
f 65/2/2 66/2/2 75/2/2
f 66/3/2 67/3/2 76/3/2
f 75/2/2 66/2/2 76/2/2
f 67/2/2 68/2/2 77/2/2
f 76/3/2 67/3/2 77/3/2
f 68/3/2 69/3/2 78/3/2
f 77/2/2 68/2/2 78/2/2
f 69/2/2 70/2/2 79/2/2
f 78/3/2 69/3/2 79/3/2
f 70/3/2 71/3/2 80/3/2
f 79/2/2 70/2/2 80/2/2
f 71/2/2 72/2/2 81/2/2
f 80/3/2 71/3/2 81/3/2
f 72/3/2 73/3/2 82/3/2
f 81/2/2 72/2/2 82/2/2
f 73/2/2 74/2/2 83/2/2
f 82/3/2 73/3/2 83/3/2
f 74/3/2 64/3/2 84/3/2
f 83/2/2 74/2/2 84/2/2
f 84/3/2 64/3/2 85/3/2
f 88/3/3 87/3/3 86/3/3
f 89/3/3 87/3/3 88/3/3
f 90/3/3 88/3/3 86/3/3
f 90/2/3 89/2/3 88/2/3
f 91/2/3 89/2/3 90/2/3
f 92/3/3 90/3/3 86/3/3
f 92/3/3 91/3/3 90/3/3
f 93/3/3 91/3/3 92/3/3
f 94/3/3 92/3/3 86/3/3
f 94/2/3 93/2/3 92/2/3
f 95/2/3 93/2/3 94/2/3
f 96/3/3 94/3/3 86/3/3
f 96/3/3 95/3/3 94/3/3
f 97/3/3 95/3/3 96/3/3
f 98/3/3 96/3/3 86/3/3
f 98/2/3 97/2/3 96/2/3
f 99/2/3 97/2/3 98/2/3
f 100/3/3 98/3/3 86/3/3
f 100/3/3 99/3/3 98/3/3
f 101/3/3 99/3/3 100/3/3
f 102/2/3 101/2/3 100/2/3
f 103/3/3 99/3/3 101/3/3
f 103/2/3 101/2/3 102/2/3
f 104/3/3 99/3/3 103/3/3
f 105/3/3 103/3/3 102/3/3
f 106/2/3 104/2/3 103/2/3
f 106/3/3 103/3/3 105/3/3
f 107/2/3 104/2/3 106/2/3
f 110/4/3 109/4/3 108/4/3
f 111/4/3 109/4/3 110/4/3
f 112/4/3 110/4/3 108/4/3
f 112/5/3 111/5/3 110/5/3
f 113/4/3 109/4/3 111/4/3
f 113/5/3 111/5/3 112/5/3
f 114/4/3 113/4/3 112/4/3
f 114/4/3 109/4/3 113/4/3
f 115/4/3 109/4/3 114/4/3
f 116/4/3 114/4/3 112/4/3
f 116/5/3 115/5/3 114/5/3
f 117/4/3 109/4/3 115/4/3
f 117/5/3 115/5/3 116/5/3
f 118/4/3 109/4/3 117/4/3
f 119/4/3 117/4/3 116/4/3
f 119/5/3 118/5/3 117/5/3
f 120/4/3 109/4/3 118/4/3
f 120/5/3 118/5/3 119/5/3
f 121/4/3 116/4/3 112/4/3
f 121/4/3 119/4/3 116/4/3
f 121/4/3 120/4/3 119/4/3
f 122/4/3 120/4/3 121/4/3
f 123/4/3 121/4/3 112/4/3
f 123/5/3 122/5/3 121/5/3
f 124/4/3 120/4/3 122/4/3
f 124/5/3 122/5/3 123/5/3
f 125/4/3 123/4/3 112/4/3
f 125/4/3 124/4/3 123/4/3
f 126/4/3 124/4/3 125/4/3
f 127/4/3 125/4/3 112/4/3
f 127/5/3 126/5/3 125/5/3
f 128/4/3 124/4/3 126/4/3
f 128/5/3 126/5/3 127/5/3
f 129/4/3 112/4/3 108/4/3
f 129/4/3 127/4/3 112/4/3
f 129/4/3 128/4/3 127/4/3
f 130/4/3 128/4/3 129/4/3
f 131/4/3 128/4/3 130/4/3
f 132/4/3 124/4/3 128/4/3
f 132/4/3 128/4/3 131/4/3
f 132/4/3 109/4/3 120/4/3
f 132/4/3 120/4/3 124/4/3
f 133/4/4 134/4/4 135/4/4
f 135/4/4 134/4/4 136/4/4
f 136/4/4 134/4/4 137/4/4
f 135/4/4 136/4/4 138/4/4
f 137/4/4 134/4/4 139/4/4
f 139/4/4 134/4/4 140/4/4
f 138/4/4 136/4/4 141/4/4
f 136/5/4 137/5/4 141/5/4
f 137/4/4 139/4/4 142/4/4
f 141/5/4 137/5/4 142/5/4
f 138/4/4 141/4/4 143/4/4
f 141/4/4 142/4/4 143/4/4
f 143/4/4 142/4/4 144/4/4
f 139/5/4 140/5/4 145/5/4
f 144/4/4 142/4/4 145/4/4
f 142/4/4 139/4/4 145/4/4
f 140/4/4 134/4/4 146/4/4
f 145/5/4 140/5/4 146/5/4
f 143/5/4 144/5/4 147/5/4
f 138/4/4 143/4/4 147/4/4
f 144/4/4 145/4/4 148/4/4
f 147/5/4 144/5/4 148/5/4
f 145/4/4 146/4/4 148/4/4
f 148/4/4 146/4/4 149/4/4
f 149/4/4 146/4/4 150/4/4
f 147/4/4 148/4/4 151/4/4
f 148/4/4 149/4/4 151/4/4
f 149/5/4 150/5/4 151/5/4
f 150/4/4 146/4/4 152/4/4
f 151/5/4 150/5/4 152/5/4
f 151/4/4 152/4/4 153/4/4
f 152/4/4 146/4/4 153/4/4
f 146/4/4 134/4/4 154/4/4
f 153/4/4 146/4/4 154/4/4
f 151/4/4 153/4/4 155/4/4
f 147/4/4 151/4/4 155/4/4
f 155/4/4 153/4/4 156/4/4
f 153/5/4 154/5/4 157/5/4
f 156/4/4 153/4/4 157/4/4
f 154/4/4 134/4/4 158/4/4
f 157/5/4 154/5/4 158/5/4
f 155/5/4 156/5/4 159/5/4
f 147/4/4 155/4/4 159/4/4
f 156/4/4 157/4/4 160/4/4
f 159/5/4 156/5/4 160/5/4
f 157/4/4 158/4/4 160/4/4
f 160/4/4 158/4/4 161/4/4
f 159/4/4 160/4/4 162/4/4
f 160/5/4 161/5/4 162/5/4
f 161/4/4 158/4/4 163/4/4
f 162/5/4 161/5/4 163/5/4
f 138/4/4 147/4/4 164/4/4
f 147/4/4 159/4/4 164/4/4
f 162/4/4 163/4/4 164/4/4
f 159/4/4 162/4/4 164/4/4
f 163/4/4 158/4/4 165/4/4
f 164/4/4 163/4/4 165/4/4
f 158/4/4 134/4/4 165/4/4
f 166/3/4 167/3/4 168/3/4
f 168/3/4 167/3/4 169/3/4
f 166/3/4 168/3/4 170/3/4
f 168/2/4 169/2/4 170/2/4
f 170/2/4 169/2/4 171/2/4
f 166/3/4 170/3/4 172/3/4
f 170/3/4 171/3/4 172/3/4
f 172/3/4 171/3/4 173/3/4
f 172/2/4 173/2/4 174/2/4
f 173/3/4 171/3/4 175/3/4
f 174/2/4 173/2/4 175/2/4
f 174/3/4 175/3/4 176/3/4
f 175/3/4 171/3/4 176/3/4
f 176/3/4 171/3/4 177/3/4
f 174/3/4 176/3/4 178/3/4
f 176/2/4 177/2/4 178/2/4
f 178/2/4 177/2/4 179/2/4
f 174/3/4 178/3/4 180/3/4
f 178/3/4 179/3/4 180/3/4
f 180/3/4 179/3/4 181/3/4
f 174/3/4 180/3/4 182/3/4
f 180/2/4 181/2/4 182/2/4
f 182/2/4 181/2/4 183/2/4
f 174/3/4 182/3/4 184/3/4
f 182/3/4 183/3/4 184/3/4
f 184/3/4 183/3/4 185/3/4
f 190/3/5 187/3/5 186/3/5
f 190/2/5 188/2/5 187/2/5
f 191/3/5 189/3/5 188/3/5
f 191/2/5 188/2/5 190/2/5
f 192/3/5 190/3/5 186/3/5
f 192/3/5 191/3/5 190/3/5
f 193/3/5 191/3/5 192/3/5
f 194/3/5 192/3/5 186/3/5
f 195/3/5 192/3/5 194/3/5
f 196/2/5 195/2/5 194/2/5
f 197/3/5 192/3/5 195/3/5
f 197/2/5 195/2/5 196/2/5
f 198/4/5 193/4/5 192/4/5
f 199/4/5 193/4/5 198/4/5
f 200/4/5 198/4/5 192/4/5
f 200/1/5 199/1/5 198/1/5
f 201/4/5 193/4/5 199/4/5
f 201/1/5 199/1/5 200/1/5
f 202/3/5 192/3/5 197/3/5
f 202/3/5 197/3/5 196/3/5
f 202/4/5 201/4/5 200/4/5
f 202/4/5 200/4/5 192/4/5
f 203/3/5 191/3/5 193/3/5
f 203/4/5 201/4/5 202/4/5
f 203/4/5 193/4/5 201/4/5
f 204/3/5 203/3/5 202/3/5
f 205/3/5 203/3/5 204/3/5
f 206/3/5 202/3/5 196/3/5
f 206/3/5 204/3/5 202/3/5
f 207/2/5 205/2/5 204/2/5
f 207/3/5 204/3/5 206/3/5
f 208/3/5 203/3/5 205/3/5
f 208/2/5 205/2/5 207/2/5
f 209/3/5 189/3/5 191/3/5
f 209/3/5 203/3/5 208/3/5
f 209/3/5 191/3/5 203/3/5
f 210/3/6 211/3/6 219/3/6
f 211/2/6 212/2/6 220/2/6
f 219/3/6 211/3/6 220/3/6
f 212/3/6 213/3/6 221/3/6
f 220/2/6 212/2/6 221/2/6
f 213/2/6 214/2/6 222/2/6
f 221/3/6 213/3/6 222/3/6
f 214/3/6 215/3/6 223/3/6
f 222/2/6 214/2/6 223/2/6
f 215/2/6 216/2/6 224/2/6
f 223/3/6 215/3/6 224/3/6
f 216/3/6 217/3/6 225/3/6
f 224/2/6 216/2/6 225/2/6
f 225/3/6 217/3/6 226/3/6
f 226/3/6 217/3/6 227/3/6
f 217/2/6 218/2/6 228/2/6
f 227/3/6 217/3/6 228/3/6
f 228/2/6 218/2/6 229/2/6
f 219/2/6 220/2/6 230/2/6
f 220/3/6 221/3/6 231/3/6
f 230/2/6 220/2/6 231/2/6
f 221/3/6 222/3/6 231/3/6
f 222/3/6 223/3/6 231/3/6
f 223/3/6 224/3/6 231/3/6
f 225/3/6 226/3/6 231/3/6
f 224/3/6 225/3/6 231/3/6
f 231/3/6 226/3/6 232/3/6
f 226/2/6 227/2/6 233/2/6
f 232/3/6 226/3/6 233/3/6
f 228/3/6 229/3/6 234/3/6
f 233/2/6 227/2/6 234/2/6
f 227/3/6 228/3/6 234/3/6
f 234/3/6 229/3/6 235/3/6
f 235/3/6 229/3/6 236/3/6
f 236/3/6 229/3/6 237/3/6
f 235/3/6 236/3/6 238/3/6
f 236/2/6 237/2/6 238/2/6
f 238/2/6 237/2/6 239/2/6
f 235/3/6 238/3/6 240/3/6
f 238/3/6 239/3/6 240/3/6
f 240/3/6 239/3/6 241/3/6
f 231/3/6 232/3/6 242/3/6
f 230/3/6 231/3/6 242/3/6
f 242/3/6 232/3/6 243/3/6
f 240/2/6 241/2/6 244/2/6
f 235/3/6 240/3/6 244/3/6
f 244/2/6 241/2/6 245/2/6
f 242/2/6 243/2/6 246/2/6
f 243/3/6 232/3/6 247/3/6
f 246/2/6 243/2/6 247/2/6
f 235/3/6 244/3/6 248/3/6
f 244/3/6 245/3/6 248/3/6
f 248/3/6 245/3/6 249/3/6
f 246/3/6 247/3/6 250/3/6
f 247/3/6 232/3/6 251/3/6
f 250/3/6 247/3/6 251/3/6
f 235/3/6 248/3/6 252/3/6
f 248/2/6 249/2/6 252/2/6
f 252/2/6 249/2/6 253/2/6
f 250/2/6 251/2/6 254/2/6
f 251/3/6 232/3/6 255/3/6
f 254/2/6 251/2/6 255/2/6
f 235/3/6 252/3/6 256/3/6
f 252/3/6 253/3/6 256/3/6
f 256/3/6 253/3/6 257/3/6
f 235/3/6 256/3/6 258/3/6
f 256/2/6 257/2/6 258/2/6
f 258/2/6 257/2/6 259/2/6
f 255/3/6 232/3/6 260/3/6
f 254/3/6 255/3/6 260/3/6
f 258/3/6 259/3/6 263/3/6
f 235/3/6 258/3/6 263/3/6
f 260/3/6 261/3/6 264/3/6
f 261/2/6 262/2/6 265/2/6
f 264/3/6 261/3/6 265/3/6
f 262/3/6 263/3/6 266/3/6
f 265/2/6 262/2/6 266/2/6
f 266/3/6 263/3/6 267/3/6
f 267/3/6 263/3/6 268/3/6
f 268/3/6 263/3/6 269/3/6
f 269/3/6 263/3/6 270/3/6
f 260/3/6 264/3/6 271/3/6
f 254/3/6 260/3/6 271/3/6
f 264/2/6 265/2/6 272/2/6
f 271/3/6 264/3/6 272/3/6
f 265/3/6 266/3/6 273/3/6
f 272/2/6 265/2/6 273/2/6
f 266/3/6 267/3/6 273/3/6
f 267/2/6 268/2/6 274/2/6
f 273/3/6 267/3/6 274/3/6
f 268/3/6 269/3/6 275/3/6
f 274/2/6 268/2/6 275/2/6
f 269/2/6 270/2/6 276/2/6
f 275/3/6 269/3/6 276/3/6
f 270/3/6 263/3/6 277/3/6
f 276/2/6 270/2/6 277/2/6
f 263/3/6 259/3/6 278/3/6
f 277/3/6 263/3/6 278/3/6
f 279/4/6 280/4/6 281/4/6
f 281/4/6 280/4/6 282/4/6
f 279/4/6 281/4/6 283/4/6
f 281/1/6 282/1/6 283/1/6
f 282/4/6 280/4/6 284/4/6
f 283/1/6 282/1/6 284/1/6
f 279/4/6 283/4/6 285/4/6
f 283/4/6 284/4/6 285/4/6
f 284/4/6 280/4/6 286/4/6
f 285/4/6 284/4/6 286/4/6
