# MagicaVoxel @ Ephtracy

# material
mtllib Wall2-2.mtl
usemtl palette

# normals
vn -1 0 0
vn 1 0 0
vn 0 0 1
vn 0 0 -1
vn 0 -1 0
vn 0 1 0

# texcoords
vt 0.0566406 0.5
vt 0.306641 0.5
vt 0.310547 0.5
vt 0.970703 0.5
vt 0.974609 0.5

# verts
v -20 0 20
v -20 0 18
v -20 0 14
v -20 0 -14
v -20 0 -18
v -20 0 -20
v -20 2 20
v -20 2 18
v -20 2 -18
v -20 2 -20
v -20 21 18
v -20 21 14
v -20 21 -14
v -20 21 -18
v -18 2 20
v -18 2 18
v -18 11 19
v -18 11 18
v -18 12 20
v -18 12 19
v -18 12 18
v -18 13 20
v -18 13 19
v -18 17 18
v -18 18 18
v -18 21 20
v -18 21 18
v 18 2 20
v 18 2 -18
v 18 7 -8
v 18 7 -12
v 18 8 3
v 18 8 -0
v 18 8 -8
v 18 8 -12
v 18 9 6
v 18 9 3
v 18 9 -0
v 18 10 6
v 18 10 3
v 18 13 10
v 18 13 5
v 18 14 10
v 18 14 5
v 18 15 -4
v 18 15 -8
v 18 16 17
v 18 16 12
v 18 16 -4
v 18 16 -8
v 18 17 17
v 18 17 12
v 18 21 20
v 18 21 -18
v 20 0 20
v 20 0 -20
v 20 1 17
v 20 1 14
v 20 1 5
v 20 1 2
v 20 1 -6
v 20 1 -9
v 20 1 -12
v 20 1 -16
v 20 2 20
v 20 2 17
v 20 2 14
v 20 2 5
v 20 2 2
v 20 2 -6
v 20 2 -9
v 20 2 -12
v 20 2 -16
v 20 2 -20
v -20 0 20
v -20 2 20
v -18 0 20
v -18 2 20
v -18 12 20
v -18 13 20
v -18 21 20
v -17 12 20
v -17 13 20
v -14 0 20
v -14 21 20
v 14 0 20
v 14 21 20
v 18 0 20
v 18 2 20
v 18 21 20
v 20 0 20
v 20 2 20
v -20 2 18
v -20 21 18
v -19 17 18
v -19 18 18
v -18 2 18
v -18 11 18
v -18 12 18
v -18 17 18
v -18 18 18
v -18 21 18
v -20 2 -18
v -20 21 -18
v -14 2 -18
v -14 10 -18
v -14 11 -18
v -12 2 -18
v -11 16 -18
v -11 17 -18
v -9 10 -18
v -9 11 -18
v -7 6 -18
v -7 7 -18
v -7 16 -18
v -7 17 -18
v 0 6 -18
v 0 7 -18
v 0 13 -18
v 0 14 -18
v 7 13 -18
v 7 14 -18
v 9 16 -18
v 9 17 -18
v 12 9 -18
v 12 10 -18
v 13 16 -18
v 13 17 -18
v 14 9 -18
v 14 10 -18
v 14 11 -18
v 16 10 -18
v 16 11 -18
v 18 2 -18
v 18 21 -18
v -20 0 -20
v -20 2 -20
v -16 1 -20
v -16 2 -20
v -14 1 -20
v -14 2 -20
v -7 0 -20
v -7 1 -20
v -4 0 -20
v -4 1 -20
v 1 1 -20
v 1 2 -20
v 4 1 -20
v 4 2 -20
v 9 1 -20
v 9 2 -20
v 14 1 -20
v 14 2 -20
v 20 0 -20
v 20 2 -20
v -20 0 20
v -18 0 20
v -14 0 20
v 14 0 20
v 18 0 20
v 20 0 20
v -20 0 18
v -18 0 18
v -20 0 14
v -14 0 14
v -20 0 -14
v 14 0 -14
v -20 0 -18
v 18 0 -18
v -7 0 -19
v -4 0 -19
v -20 0 -20
v -7 0 -20
v -4 0 -20
v 20 0 -20
v -20 2 20
v -18 2 20
v 18 2 20
v 20 2 20
v -20 2 18
v -18 2 18
v 19 2 17
v 20 2 17
v 19 2 14
v 20 2 14
v 19 2 5
v 20 2 5
v 19 2 2
v 20 2 2
v 19 2 -6
v 20 2 -6
v 19 2 -9
v 20 2 -9
v 19 2 -12
v 20 2 -12
v 19 2 -16
v 20 2 -16
v -20 2 -18
v -14 2 -18
v -12 2 -18
v 18 2 -18
v -16 2 -19
v -14 2 -19
v -12 2 -19
v 1 2 -19
v 4 2 -19
v 9 2 -19
v 14 2 -19
v -20 2 -20
v -16 2 -20
v -14 2 -20
v 1 2 -20
v 4 2 -20
v 9 2 -20
v 14 2 -20
v 20 2 -20
v -18 21 20
v -14 21 20
v 14 21 20
v 18 21 20
v -20 21 18
v -18 21 18
v -20 21 14
v -14 21 14
v -20 21 -14
v 14 21 -14
v -20 21 -18
v 18 21 -18

# faces
f 7/3/1 2/3/1 1/3/1
f 8/4/1 3/4/1 2/4/1
f 8/3/1 2/3/1 7/3/1
f 9/3/1 6/3/1 5/3/1
f 9/4/1 5/4/1 4/4/1
f 10/3/1 6/3/1 9/3/1
f 11/4/1 3/4/1 8/4/1
f 12/1/1 4/1/1 3/1/1
f 12/4/1 3/4/1 11/4/1
f 13/4/1 9/4/1 4/4/1
f 13/1/1 4/1/1 12/1/1
f 14/4/1 9/4/1 13/4/1
f 17/4/1 16/4/1 15/4/1
f 18/4/1 16/4/1 17/4/1
f 19/4/1 17/4/1 15/4/1
f 20/5/1 18/5/1 17/5/1
f 20/4/1 17/4/1 19/4/1
f 21/5/1 18/5/1 20/5/1
f 22/5/1 20/5/1 19/5/1
f 23/4/1 21/4/1 20/4/1
f 23/5/1 20/5/1 22/5/1
f 24/4/1 23/4/1 22/4/1
f 24/4/1 21/4/1 23/4/1
f 25/4/1 24/4/1 22/4/1
f 26/4/1 25/4/1 22/4/1
f 27/4/1 25/4/1 26/4/1
f 28/4/2 29/4/2 30/4/2
f 30/4/2 29/4/2 31/4/2
f 28/4/2 30/4/2 32/4/2
f 32/4/2 30/4/2 33/4/2
f 30/5/2 31/5/2 34/5/2
f 33/4/2 30/4/2 34/4/2
f 31/4/2 29/4/2 35/4/2
f 34/5/2 31/5/2 35/5/2
f 28/4/2 32/4/2 36/4/2
f 32/5/2 33/5/2 37/5/2
f 36/4/2 32/4/2 37/4/2
f 33/4/2 34/4/2 38/4/2
f 37/5/2 33/5/2 38/5/2
f 34/4/2 35/4/2 38/4/2
f 36/5/2 37/5/2 39/5/2
f 28/4/2 36/4/2 39/4/2
f 37/4/2 38/4/2 40/4/2
f 39/5/2 37/5/2 40/5/2
f 28/4/2 39/4/2 41/4/2
f 39/4/2 40/4/2 41/4/2
f 41/4/2 40/4/2 42/4/2
f 28/4/2 41/4/2 43/4/2
f 41/5/2 42/5/2 43/5/2
f 42/4/2 40/4/2 44/4/2
f 43/5/2 42/5/2 44/5/2
f 38/4/2 35/4/2 45/4/2
f 44/4/2 40/4/2 45/4/2
f 43/4/2 44/4/2 45/4/2
f 40/4/2 38/4/2 45/4/2
f 45/4/2 35/4/2 46/4/2
f 28/4/2 43/4/2 47/4/2
f 43/4/2 45/4/2 47/4/2
f 47/4/2 45/4/2 48/4/2
f 45/5/2 46/5/2 49/5/2
f 48/4/2 45/4/2 49/4/2
f 46/4/2 35/4/2 50/4/2
f 49/5/2 46/5/2 50/5/2
f 47/5/2 48/5/2 51/5/2
f 28/4/2 47/4/2 51/4/2
f 48/4/2 49/4/2 52/4/2
f 51/5/2 48/5/2 52/5/2
f 49/4/2 50/4/2 52/4/2
f 28/4/2 51/4/2 53/4/2
f 51/4/2 52/4/2 53/4/2
f 52/4/2 50/4/2 54/4/2
f 53/4/2 52/4/2 54/4/2
f 35/4/2 29/4/2 54/4/2
f 50/4/2 35/4/2 54/4/2
f 55/3/2 56/3/2 57/3/2
f 57/3/2 56/3/2 58/3/2
f 58/3/2 56/3/2 59/3/2
f 59/3/2 56/3/2 60/3/2
f 60/3/2 56/3/2 61/3/2
f 61/3/2 56/3/2 62/3/2
f 62/3/2 56/3/2 63/3/2
f 63/3/2 56/3/2 64/3/2
f 55/3/2 57/3/2 65/3/2
f 57/2/2 58/2/2 66/2/2
f 65/3/2 57/3/2 66/3/2
f 58/3/2 59/3/2 67/3/2
f 66/2/2 58/2/2 67/2/2
f 59/2/2 60/2/2 68/2/2
f 67/3/2 59/3/2 68/3/2
f 60/3/2 61/3/2 69/3/2
f 68/2/2 60/2/2 69/2/2
f 61/2/2 62/2/2 70/2/2
f 69/3/2 61/3/2 70/3/2
f 62/3/2 63/3/2 71/3/2
f 70/2/2 62/2/2 71/2/2
f 63/2/2 64/2/2 72/2/2
f 71/3/2 63/3/2 72/3/2
f 64/3/2 56/3/2 73/3/2
f 72/2/2 64/2/2 73/2/2
f 73/3/2 56/3/2 74/3/2
f 77/3/3 76/3/3 75/3/3
f 78/3/3 76/3/3 77/3/3
f 82/4/3 78/4/3 77/4/3
f 82/4/3 79/4/3 78/4/3
f 82/5/3 80/5/3 79/5/3
f 83/4/3 81/4/3 80/4/3
f 83/5/3 80/5/3 82/5/3
f 84/4/3 82/4/3 77/4/3
f 84/4/3 83/4/3 82/4/3
f 85/4/3 81/4/3 83/4/3
f 85/4/3 83/4/3 84/4/3
f 86/1/3 85/1/3 84/1/3
f 87/1/3 85/1/3 86/1/3
f 88/4/3 87/4/3 86/4/3
f 89/4/3 87/4/3 88/4/3
f 90/4/3 87/4/3 89/4/3
f 91/3/3 89/3/3 88/3/3
f 92/3/3 89/3/3 91/3/3
f 95/4/3 94/4/3 93/4/3
f 96/4/3 94/4/3 95/4/3
f 97/4/3 95/4/3 93/4/3
f 98/4/3 95/4/3 97/4/3
f 99/4/3 95/4/3 98/4/3
f 100/5/3 96/5/3 95/5/3
f 100/4/3 95/4/3 99/4/3
f 101/4/3 94/4/3 96/4/3
f 101/5/3 96/5/3 100/5/3
f 102/4/3 94/4/3 101/4/3
f 103/4/4 104/4/4 105/4/4
f 105/4/4 104/4/4 106/4/4
f 106/4/4 104/4/4 107/4/4
f 105/4/4 106/4/4 108/4/4
f 107/4/4 104/4/4 109/4/4
f 109/4/4 104/4/4 110/4/4
f 108/4/4 106/4/4 111/4/4
f 106/5/4 107/5/4 111/5/4
f 107/4/4 109/4/4 112/4/4
f 111/5/4 107/5/4 112/5/4
f 108/4/4 111/4/4 113/4/4
f 111/4/4 112/4/4 113/4/4
f 113/4/4 112/4/4 114/4/4
f 109/5/4 110/5/4 115/5/4
f 114/4/4 112/4/4 115/4/4
f 112/4/4 109/4/4 115/4/4
f 110/4/4 104/4/4 116/4/4
f 115/5/4 110/5/4 116/5/4
f 113/5/4 114/5/4 117/5/4
f 108/4/4 113/4/4 117/4/4
f 114/4/4 115/4/4 118/4/4
f 117/5/4 114/5/4 118/5/4
f 115/4/4 116/4/4 118/4/4
f 118/4/4 116/4/4 119/4/4
f 119/4/4 116/4/4 120/4/4
f 117/4/4 118/4/4 121/4/4
f 118/4/4 119/4/4 121/4/4
f 119/5/4 120/5/4 121/5/4
f 120/4/4 116/4/4 122/4/4
f 121/5/4 120/5/4 122/5/4
f 121/4/4 122/4/4 123/4/4
f 122/4/4 116/4/4 123/4/4
f 116/4/4 104/4/4 124/4/4
f 123/4/4 116/4/4 124/4/4
f 121/4/4 123/4/4 125/4/4
f 117/4/4 121/4/4 125/4/4
f 125/4/4 123/4/4 126/4/4
f 123/5/4 124/5/4 127/5/4
f 126/4/4 123/4/4 127/4/4
f 124/4/4 104/4/4 128/4/4
f 127/5/4 124/5/4 128/5/4
f 125/5/4 126/5/4 129/5/4
f 117/4/4 125/4/4 129/4/4
f 126/4/4 127/4/4 130/4/4
f 129/5/4 126/5/4 130/5/4
f 127/4/4 128/4/4 130/4/4
f 130/4/4 128/4/4 131/4/4
f 129/4/4 130/4/4 132/4/4
f 130/5/4 131/5/4 132/5/4
f 131/4/4 128/4/4 133/4/4
f 132/5/4 131/5/4 133/5/4
f 108/4/4 117/4/4 134/4/4
f 117/4/4 129/4/4 134/4/4
f 132/4/4 133/4/4 134/4/4
f 129/4/4 132/4/4 134/4/4
f 133/4/4 128/4/4 135/4/4
f 134/4/4 133/4/4 135/4/4
f 128/4/4 104/4/4 135/4/4
f 136/3/4 137/3/4 138/3/4
f 138/3/4 137/3/4 139/3/4
f 136/3/4 138/3/4 140/3/4
f 138/2/4 139/2/4 140/2/4
f 140/2/4 139/2/4 141/2/4
f 136/3/4 140/3/4 142/3/4
f 140/3/4 141/3/4 142/3/4
f 142/3/4 141/3/4 143/3/4
f 142/2/4 143/2/4 144/2/4
f 143/3/4 141/3/4 145/3/4
f 144/2/4 143/2/4 145/2/4
f 144/3/4 145/3/4 146/3/4
f 145/3/4 141/3/4 146/3/4
f 146/3/4 141/3/4 147/3/4
f 144/3/4 146/3/4 148/3/4
f 146/2/4 147/2/4 148/2/4
f 148/2/4 147/2/4 149/2/4
f 144/3/4 148/3/4 150/3/4
f 148/3/4 149/3/4 150/3/4
f 150/3/4 149/3/4 151/3/4
f 144/3/4 150/3/4 152/3/4
f 150/2/4 151/2/4 152/2/4
f 152/2/4 151/2/4 153/2/4
f 144/3/4 152/3/4 154/3/4
f 152/3/4 153/3/4 154/3/4
f 154/3/4 153/3/4 155/3/4
f 162/3/5 157/3/5 156/3/5
f 163/4/5 158/4/5 157/4/5
f 163/3/5 157/3/5 162/3/5
f 164/4/5 163/4/5 162/4/5
f 165/1/5 159/1/5 158/1/5
f 165/4/5 163/4/5 164/4/5
f 165/4/5 158/4/5 163/4/5
f 166/1/5 165/1/5 164/1/5
f 167/4/5 160/4/5 159/4/5
f 167/1/5 165/1/5 166/1/5
f 167/1/5 159/1/5 165/1/5
f 168/4/5 167/4/5 166/4/5
f 169/3/5 161/3/5 160/3/5
f 169/4/5 167/4/5 168/4/5
f 169/4/5 160/4/5 167/4/5
f 170/3/5 169/3/5 168/3/5
f 171/3/5 169/3/5 170/3/5
f 172/3/5 170/3/5 168/3/5
f 173/2/5 171/2/5 170/2/5
f 173/3/5 170/3/5 172/3/5
f 174/3/5 169/3/5 171/3/5
f 174/2/5 171/2/5 173/2/5
f 175/3/5 161/3/5 169/3/5
f 175/3/5 169/3/5 174/3/5
f 176/3/6 177/3/6 180/3/6
f 180/3/6 177/3/6 181/3/6
f 178/3/6 179/3/6 182/3/6
f 182/3/6 179/3/6 183/3/6
f 178/3/6 182/3/6 184/3/6
f 182/2/6 183/2/6 184/2/6
f 184/2/6 183/2/6 185/2/6
f 178/3/6 184/3/6 186/3/6
f 184/3/6 185/3/6 186/3/6
f 186/3/6 185/3/6 187/3/6
f 178/3/6 186/3/6 188/3/6
f 186/2/6 187/2/6 188/2/6
f 188/2/6 187/2/6 189/2/6
f 178/3/6 188/3/6 190/3/6
f 188/3/6 189/3/6 190/3/6
f 190/3/6 189/3/6 191/3/6
f 178/3/6 190/3/6 192/3/6
f 190/2/6 191/2/6 192/2/6
f 192/2/6 191/2/6 193/2/6
f 178/3/6 192/3/6 194/3/6
f 192/3/6 193/3/6 194/3/6
f 194/3/6 193/3/6 195/3/6
f 178/3/6 194/3/6 196/3/6
f 194/2/6 195/2/6 196/2/6
f 196/2/6 195/2/6 197/2/6
f 178/3/6 196/3/6 201/3/6
f 196/3/6 197/3/6 201/3/6
f 198/3/6 199/3/6 202/3/6
f 199/2/6 200/2/6 203/2/6
f 202/3/6 199/3/6 203/3/6
f 200/3/6 201/3/6 204/3/6
f 203/2/6 200/2/6 204/2/6
f 204/3/6 201/3/6 205/3/6
f 205/3/6 201/3/6 206/3/6
f 206/3/6 201/3/6 207/3/6
f 207/3/6 201/3/6 208/3/6
f 198/3/6 202/3/6 209/3/6
f 202/2/6 203/2/6 210/2/6
f 209/3/6 202/3/6 210/3/6
f 203/3/6 204/3/6 211/3/6
f 210/2/6 203/2/6 211/2/6
f 204/3/6 205/3/6 211/3/6
f 205/2/6 206/2/6 212/2/6
f 211/3/6 205/3/6 212/3/6
f 206/3/6 207/3/6 213/3/6
f 212/2/6 206/2/6 213/2/6
f 207/2/6 208/2/6 214/2/6
f 213/3/6 207/3/6 214/3/6
f 208/3/6 201/3/6 215/3/6
f 214/2/6 208/2/6 215/2/6
f 201/3/6 197/3/6 216/3/6
f 215/3/6 201/3/6 216/3/6
f 217/4/6 218/4/6 222/4/6
f 221/4/6 222/4/6 223/4/6
f 218/1/6 219/1/6 224/1/6
f 223/4/6 222/4/6 224/4/6
f 222/4/6 218/4/6 224/4/6
f 223/1/6 224/1/6 225/1/6
f 219/4/6 220/4/6 226/4/6
f 225/1/6 224/1/6 226/1/6
f 224/1/6 219/1/6 226/1/6
f 225/4/6 226/4/6 227/4/6
f 226/4/6 220/4/6 228/4/6
f 227/4/6 226/4/6 228/4/6
