# MagicaVoxel @ Ephtracy

# material
mtllib Wall0-1.mtl
usemtl palette

# normals
vn -1 0 0
vn 1 0 0
vn 0 0 1
vn 0 0 -1
vn 0 -1 0
vn 0 1 0

# texcoords
vt 0.0566406 0.5
vt 0.310547 0.5
vt 0.970703 0.5
vt 0.974609 0.5

# verts
v -20 0 20
v -20 0 -20
v -20 21 20
v -20 21 -20
v 18 2 20
v 18 2 18
v 18 6 19
v 18 6 18
v 18 7 19
v 18 7 18
v 18 15 19
v 18 15 18
v 18 16 19
v 18 16 18
v 18 21 20
v 18 21 18
v 20 0 20
v 20 0 18
v 20 0 14
v 20 0 -20
v 20 2 20
v 20 2 18
v 20 21 18
v 20 21 14
v 20 21 -20
v -20 0 20
v -20 21 20
v 14 0 20
v 14 21 20
v 18 0 20
v 18 2 20
v 18 21 20
v 20 0 20
v 20 2 20
v 18 2 18
v 18 6 18
v 18 7 18
v 18 15 18
v 18 16 18
v 18 21 18
v 20 2 18
v 20 21 18
v -20 0 -20
v -20 21 -20
v 20 0 -20
v 20 21 -20
v -20 0 20
v 14 0 20
v 18 0 20
v 20 0 20
v 18 0 18
v 20 0 18
v 14 0 14
v 20 0 14
v -20 0 -20
v 20 0 -20
v 18 2 20
v 20 2 20
v 18 2 18
v 20 2 18
v -20 21 20
v 14 21 20
v 18 21 20
v 18 21 18
v 20 21 18
v 14 21 14
v 20 21 14
v -20 21 -20
v 20 21 -20

# faces
f 3/1/1 2/1/1 1/1/1
f 4/1/1 2/1/1 3/1/1
f 5/3/2 6/3/2 7/3/2
f 7/3/2 6/3/2 8/3/2
f 5/3/2 7/3/2 9/3/2
f 7/4/2 8/4/2 9/4/2
f 9/4/2 8/4/2 10/4/2
f 5/3/2 9/3/2 11/3/2
f 9/3/2 10/3/2 11/3/2
f 11/3/2 10/3/2 12/3/2
f 5/3/2 11/3/2 13/3/2
f 11/4/2 12/4/2 13/4/2
f 13/4/2 12/4/2 14/4/2
f 5/3/2 13/3/2 15/3/2
f 13/3/2 14/3/2 15/3/2
f 15/3/2 14/3/2 16/3/2
f 17/2/2 18/2/2 21/2/2
f 18/3/2 19/3/2 22/3/2
f 21/2/2 18/2/2 22/2/2
f 22/3/2 19/3/2 23/3/2
f 19/1/2 20/1/2 24/1/2
f 23/3/2 19/3/2 24/3/2
f 24/1/2 20/1/2 25/1/2
f 28/1/3 27/1/3 26/1/3
f 29/1/3 27/1/3 28/1/3
f 30/3/3 29/3/3 28/3/3
f 31/3/3 29/3/3 30/3/3
f 32/3/3 29/3/3 31/3/3
f 33/2/3 31/2/3 30/2/3
f 34/2/3 31/2/3 33/2/3
f 41/3/3 36/3/3 35/3/3
f 41/3/3 40/3/3 39/3/3
f 41/3/3 39/3/3 38/3/3
f 41/3/3 38/3/3 37/3/3
f 41/3/3 37/3/3 36/3/3
f 42/3/3 40/3/3 41/3/3
f 43/1/4 44/1/4 45/1/4
f 45/1/4 44/1/4 46/1/4
f 51/3/5 49/3/5 48/3/5
f 51/2/5 50/2/5 49/2/5
f 52/2/5 50/2/5 51/2/5
f 53/1/5 48/1/5 47/1/5
f 53/3/5 51/3/5 48/3/5
f 53/3/5 52/3/5 51/3/5
f 54/3/5 52/3/5 53/3/5
f 55/1/5 53/1/5 47/1/5
f 55/1/5 54/1/5 53/1/5
f 56/1/5 54/1/5 55/1/5
f 57/2/6 58/2/6 59/2/6
f 59/2/6 58/2/6 60/2/6
f 62/3/6 63/3/6 64/3/6
f 61/1/6 62/1/6 66/1/6
f 64/3/6 65/3/6 66/3/6
f 62/3/6 64/3/6 66/3/6
f 66/3/6 65/3/6 67/3/6
f 61/1/6 66/1/6 68/1/6
f 66/1/6 67/1/6 68/1/6
f 68/1/6 67/1/6 69/1/6
