# MagicaVoxel @ Ephtracy

# material
mtllib Wall3.mtl
usemtl palette

# normals
vn -1 0 0
vn 1 0 0
vn 0 0 1
vn 0 0 -1
vn 0 -1 0
vn 0 1 0

# texcoords
vt 0.0566406 0.5
vt 0.306641 0.5
vt 0.310547 0.5
vt 0.970703 0.5
vt 0.974609 0.5

# verts
v -20 0 20
v -20 0 18
v -20 0 14
v -20 0 -14
v -20 0 -18
v -20 0 -20
v -20 2 20
v -20 2 18
v -20 2 -18
v -20 2 -20
v -20 21 18
v -20 21 14
v -20 21 -14
v -20 21 -18
v 18 2 18
v 18 2 -18
v 18 7 -8
v 18 7 -12
v 18 8 3
v 18 8 -0
v 18 8 -8
v 18 8 -12
v 18 9 6
v 18 9 3
v 18 9 -0
v 18 10 6
v 18 10 3
v 18 13 10
v 18 13 5
v 18 14 10
v 18 14 5
v 18 15 -4
v 18 15 -8
v 18 16 17
v 18 16 12
v 18 16 -4
v 18 16 -8
v 18 17 17
v 18 17 12
v 18 21 18
v 18 21 -18
v 20 0 20
v 20 0 -20
v 20 1 20
v 20 1 19
v 20 1 17
v 20 1 14
v 20 1 5
v 20 1 2
v 20 1 -6
v 20 1 -9
v 20 1 -12
v 20 1 -16
v 20 2 20
v 20 2 19
v 20 2 17
v 20 2 14
v 20 2 5
v 20 2 2
v 20 2 -6
v 20 2 -9
v 20 2 -12
v 20 2 -16
v 20 2 -20
v -20 0 20
v -20 2 20
v -14 1 20
v -14 2 20
v -10 1 20
v -10 2 20
v 0 1 20
v 0 2 20
v 3 1 20
v 3 2 20
v 18 0 20
v 18 1 20
v 19 0 20
v 19 1 20
v 19 2 20
v 20 0 20
v 20 1 20
v 20 2 20
v -20 2 18
v -20 21 18
v -17 7 18
v -17 8 18
v -14 7 18
v -14 8 18
v -12 16 18
v -12 17 18
v -9 16 18
v -9 17 18
v -9 18 18
v -6 17 18
v -6 18 18
v -5 14 18
v -5 15 18
v 3 14 18
v 3 15 18
v 5 9 18
v 5 10 18
v 9 9 18
v 9 10 18
v 11 2 18
v 14 2 18
v 18 2 18
v 18 21 18
v -20 2 -18
v -20 21 -18
v -14 2 -18
v -14 10 -18
v -14 11 -18
v -12 2 -18
v -11 16 -18
v -11 17 -18
v -9 10 -18
v -9 11 -18
v -7 6 -18
v -7 7 -18
v -7 16 -18
v -7 17 -18
v 0 6 -18
v 0 7 -18
v 0 13 -18
v 0 14 -18
v 7 13 -18
v 7 14 -18
v 9 16 -18
v 9 17 -18
v 12 9 -18
v 12 10 -18
v 13 16 -18
v 13 17 -18
v 14 9 -18
v 14 10 -18
v 14 11 -18
v 16 10 -18
v 16 11 -18
v 18 2 -18
v 18 21 -18
v -20 0 -20
v -20 2 -20
v -16 1 -20
v -16 2 -20
v -14 1 -20
v -14 2 -20
v -7 0 -20
v -7 1 -20
v -4 0 -20
v -4 1 -20
v 1 1 -20
v 1 2 -20
v 4 1 -20
v 4 2 -20
v 9 1 -20
v 9 2 -20
v 14 1 -20
v 14 2 -20
v 20 0 -20
v 20 2 -20
v -20 0 20
v 18 0 20
v 19 0 20
v 20 0 20
v 18 0 19
v 19 0 19
v -20 0 18
v 18 0 18
v -20 0 14
v 14 0 14
v -20 0 -14
v 14 0 -14
v -20 0 -18
v 18 0 -18
v -7 0 -19
v -4 0 -19
v -20 0 -20
v -7 0 -20
v -4 0 -20
v 20 0 -20
v -20 2 20
v -14 2 20
v -10 2 20
v 0 2 20
v 3 2 20
v 19 2 20
v 20 2 20
v -14 2 19
v -10 2 19
v 0 2 19
v 3 2 19
v 11 2 19
v 14 2 19
v 19 2 19
v 20 2 19
v -20 2 18
v 11 2 18
v 14 2 18
v 18 2 18
v 19 2 17
v 20 2 17
v 19 2 14
v 20 2 14
v 19 2 5
v 20 2 5
v 19 2 2
v 20 2 2
v 19 2 -6
v 20 2 -6
v 19 2 -9
v 20 2 -9
v 19 2 -12
v 20 2 -12
v 19 2 -16
v 20 2 -16
v -20 2 -18
v -14 2 -18
v -12 2 -18
v 18 2 -18
v -16 2 -19
v -14 2 -19
v -12 2 -19
v 1 2 -19
v 4 2 -19
v 9 2 -19
v 14 2 -19
v -20 2 -20
v -16 2 -20
v -14 2 -20
v 1 2 -20
v 4 2 -20
v 9 2 -20
v 14 2 -20
v 20 2 -20
v -20 21 18
v 18 21 18
v -20 21 14
v 14 21 14
v -20 21 -14
v 14 21 -14
v -20 21 -18
v 18 21 -18

# faces
f 7/3/1 2/3/1 1/3/1
f 8/4/1 3/4/1 2/4/1
f 8/3/1 2/3/1 7/3/1
f 9/3/1 6/3/1 5/3/1
f 9/4/1 5/4/1 4/4/1
f 10/3/1 6/3/1 9/3/1
f 11/4/1 3/4/1 8/4/1
f 12/1/1 4/1/1 3/1/1
f 12/4/1 3/4/1 11/4/1
f 13/4/1 9/4/1 4/4/1
f 13/1/1 4/1/1 12/1/1
f 14/4/1 9/4/1 13/4/1
f 15/4/2 16/4/2 17/4/2
f 17/4/2 16/4/2 18/4/2
f 15/4/2 17/4/2 19/4/2
f 19/4/2 17/4/2 20/4/2
f 17/5/2 18/5/2 21/5/2
f 20/4/2 17/4/2 21/4/2
f 18/4/2 16/4/2 22/4/2
f 21/5/2 18/5/2 22/5/2
f 15/4/2 19/4/2 23/4/2
f 19/5/2 20/5/2 24/5/2
f 23/4/2 19/4/2 24/4/2
f 20/4/2 21/4/2 25/4/2
f 24/5/2 20/5/2 25/5/2
f 21/4/2 22/4/2 25/4/2
f 23/5/2 24/5/2 26/5/2
f 15/4/2 23/4/2 26/4/2
f 24/4/2 25/4/2 27/4/2
f 26/5/2 24/5/2 27/5/2
f 15/4/2 26/4/2 28/4/2
f 26/4/2 27/4/2 28/4/2
f 28/4/2 27/4/2 29/4/2
f 15/4/2 28/4/2 30/4/2
f 28/5/2 29/5/2 30/5/2
f 29/4/2 27/4/2 31/4/2
f 30/5/2 29/5/2 31/5/2
f 25/4/2 22/4/2 32/4/2
f 31/4/2 27/4/2 32/4/2
f 30/4/2 31/4/2 32/4/2
f 27/4/2 25/4/2 32/4/2
f 32/4/2 22/4/2 33/4/2
f 15/4/2 30/4/2 34/4/2
f 30/4/2 32/4/2 34/4/2
f 34/4/2 32/4/2 35/4/2
f 32/5/2 33/5/2 36/5/2
f 35/4/2 32/4/2 36/4/2
f 33/4/2 22/4/2 37/4/2
f 36/5/2 33/5/2 37/5/2
f 34/5/2 35/5/2 38/5/2
f 15/4/2 34/4/2 38/4/2
f 35/4/2 36/4/2 39/4/2
f 38/5/2 35/5/2 39/5/2
f 36/4/2 37/4/2 39/4/2
f 15/4/2 38/4/2 40/4/2
f 38/4/2 39/4/2 40/4/2
f 39/4/2 37/4/2 41/4/2
f 40/4/2 39/4/2 41/4/2
f 22/4/2 16/4/2 41/4/2
f 37/4/2 22/4/2 41/4/2
f 42/3/2 43/3/2 44/3/2
f 44/3/2 43/3/2 45/3/2
f 45/3/2 43/3/2 46/3/2
f 46/3/2 43/3/2 47/3/2
f 47/3/2 43/3/2 48/3/2
f 48/3/2 43/3/2 49/3/2
f 49/3/2 43/3/2 50/3/2
f 50/3/2 43/3/2 51/3/2
f 51/3/2 43/3/2 52/3/2
f 52/3/2 43/3/2 53/3/2
f 44/2/2 45/2/2 54/2/2
f 45/3/2 46/3/2 55/3/2
f 54/2/2 45/2/2 55/2/2
f 46/2/2 47/2/2 56/2/2
f 55/3/2 46/3/2 56/3/2
f 47/3/2 48/3/2 57/3/2
f 56/2/2 47/2/2 57/2/2
f 48/2/2 49/2/2 58/2/2
f 57/3/2 48/3/2 58/3/2
f 49/3/2 50/3/2 59/3/2
f 58/2/2 49/2/2 59/2/2
f 50/2/2 51/2/2 60/2/2
f 59/3/2 50/3/2 60/3/2
f 51/3/2 52/3/2 61/3/2
f 60/2/2 51/2/2 61/2/2
f 52/2/2 53/2/2 62/2/2
f 61/3/2 52/3/2 62/3/2
f 53/3/2 43/3/2 63/3/2
f 62/2/2 53/2/2 63/2/2
f 63/3/2 43/3/2 64/3/2
f 67/3/3 66/3/3 65/3/3
f 68/3/3 66/3/3 67/3/3
f 69/3/3 67/3/3 65/3/3
f 69/2/3 68/2/3 67/2/3
f 70/2/3 68/2/3 69/2/3
f 71/3/3 69/3/3 65/3/3
f 71/3/3 70/3/3 69/3/3
f 72/3/3 70/3/3 71/3/3
f 73/3/3 71/3/3 65/3/3
f 73/2/3 72/2/3 71/2/3
f 74/2/3 72/2/3 73/2/3
f 75/3/3 73/3/3 65/3/3
f 75/3/3 74/3/3 73/3/3
f 76/3/3 74/3/3 75/3/3
f 77/2/3 76/2/3 75/2/3
f 78/3/3 74/3/3 76/3/3
f 78/2/3 76/2/3 77/2/3
f 79/3/3 74/3/3 78/3/3
f 80/3/3 78/3/3 77/3/3
f 81/2/3 79/2/3 78/2/3
f 81/3/3 78/3/3 80/3/3
f 82/2/3 79/2/3 81/2/3
f 85/4/3 84/4/3 83/4/3
f 86/4/3 84/4/3 85/4/3
f 87/4/3 85/4/3 83/4/3
f 87/5/3 86/5/3 85/5/3
f 88/4/3 84/4/3 86/4/3
f 88/5/3 86/5/3 87/5/3
f 89/4/3 88/4/3 87/4/3
f 89/4/3 84/4/3 88/4/3
f 90/4/3 84/4/3 89/4/3
f 91/4/3 89/4/3 87/4/3
f 91/5/3 90/5/3 89/5/3
f 92/4/3 84/4/3 90/4/3
f 92/5/3 90/5/3 91/5/3
f 93/4/3 84/4/3 92/4/3
f 94/4/3 92/4/3 91/4/3
f 94/5/3 93/5/3 92/5/3
f 95/4/3 84/4/3 93/4/3
f 95/5/3 93/5/3 94/5/3
f 96/4/3 91/4/3 87/4/3
f 96/4/3 94/4/3 91/4/3
f 96/4/3 95/4/3 94/4/3
f 97/4/3 95/4/3 96/4/3
f 98/4/3 96/4/3 87/4/3
f 98/5/3 97/5/3 96/5/3
f 99/4/3 95/4/3 97/4/3
f 99/5/3 97/5/3 98/5/3
f 100/4/3 98/4/3 87/4/3
f 100/4/3 99/4/3 98/4/3
f 101/4/3 99/4/3 100/4/3
f 102/4/3 100/4/3 87/4/3
f 102/5/3 101/5/3 100/5/3
f 103/4/3 99/4/3 101/4/3
f 103/5/3 101/5/3 102/5/3
f 104/4/3 87/4/3 83/4/3
f 104/4/3 102/4/3 87/4/3
f 104/4/3 103/4/3 102/4/3
f 105/4/3 103/4/3 104/4/3
f 106/4/3 103/4/3 105/4/3
f 107/4/3 99/4/3 103/4/3
f 107/4/3 103/4/3 106/4/3
f 107/4/3 84/4/3 95/4/3
f 107/4/3 95/4/3 99/4/3
f 108/4/4 109/4/4 110/4/4
f 110/4/4 109/4/4 111/4/4
f 111/4/4 109/4/4 112/4/4
f 110/4/4 111/4/4 113/4/4
f 112/4/4 109/4/4 114/4/4
f 114/4/4 109/4/4 115/4/4
f 113/4/4 111/4/4 116/4/4
f 111/5/4 112/5/4 116/5/4
f 112/4/4 114/4/4 117/4/4
f 116/5/4 112/5/4 117/5/4
f 113/4/4 116/4/4 118/4/4
f 116/4/4 117/4/4 118/4/4
f 118/4/4 117/4/4 119/4/4
f 114/5/4 115/5/4 120/5/4
f 119/4/4 117/4/4 120/4/4
f 117/4/4 114/4/4 120/4/4
f 115/4/4 109/4/4 121/4/4
f 120/5/4 115/5/4 121/5/4
f 118/5/4 119/5/4 122/5/4
f 113/4/4 118/4/4 122/4/4
f 119/4/4 120/4/4 123/4/4
f 122/5/4 119/5/4 123/5/4
f 120/4/4 121/4/4 123/4/4
f 123/4/4 121/4/4 124/4/4
f 124/4/4 121/4/4 125/4/4
f 122/4/4 123/4/4 126/4/4
f 123/4/4 124/4/4 126/4/4
f 124/5/4 125/5/4 126/5/4
f 125/4/4 121/4/4 127/4/4
f 126/5/4 125/5/4 127/5/4
f 126/4/4 127/4/4 128/4/4
f 127/4/4 121/4/4 128/4/4
f 121/4/4 109/4/4 129/4/4
f 128/4/4 121/4/4 129/4/4
f 126/4/4 128/4/4 130/4/4
f 122/4/4 126/4/4 130/4/4
f 130/4/4 128/4/4 131/4/4
f 128/5/4 129/5/4 132/5/4
f 131/4/4 128/4/4 132/4/4
f 129/4/4 109/4/4 133/4/4
f 132/5/4 129/5/4 133/5/4
f 130/5/4 131/5/4 134/5/4
f 122/4/4 130/4/4 134/4/4
f 131/4/4 132/4/4 135/4/4
f 134/5/4 131/5/4 135/5/4
f 132/4/4 133/4/4 135/4/4
f 135/4/4 133/4/4 136/4/4
f 134/4/4 135/4/4 137/4/4
f 135/5/4 136/5/4 137/5/4
f 136/4/4 133/4/4 138/4/4
f 137/5/4 136/5/4 138/5/4
f 113/4/4 122/4/4 139/4/4
f 122/4/4 134/4/4 139/4/4
f 137/4/4 138/4/4 139/4/4
f 134/4/4 137/4/4 139/4/4
f 138/4/4 133/4/4 140/4/4
f 139/4/4 138/4/4 140/4/4
f 133/4/4 109/4/4 140/4/4
f 141/3/4 142/3/4 143/3/4
f 143/3/4 142/3/4 144/3/4
f 141/3/4 143/3/4 145/3/4
f 143/2/4 144/2/4 145/2/4
f 145/2/4 144/2/4 146/2/4
f 141/3/4 145/3/4 147/3/4
f 145/3/4 146/3/4 147/3/4
f 147/3/4 146/3/4 148/3/4
f 147/2/4 148/2/4 149/2/4
f 148/3/4 146/3/4 150/3/4
f 149/2/4 148/2/4 150/2/4
f 149/3/4 150/3/4 151/3/4
f 150/3/4 146/3/4 151/3/4
f 151/3/4 146/3/4 152/3/4
f 149/3/4 151/3/4 153/3/4
f 151/2/4 152/2/4 153/2/4
f 153/2/4 152/2/4 154/2/4
f 149/3/4 153/3/4 155/3/4
f 153/3/4 154/3/4 155/3/4
f 155/3/4 154/3/4 156/3/4
f 149/3/4 155/3/4 157/3/4
f 155/2/4 156/2/4 157/2/4
f 157/2/4 156/2/4 158/2/4
f 149/3/4 157/3/4 159/3/4
f 157/3/4 158/3/4 159/3/4
f 159/3/4 158/3/4 160/3/4
f 165/3/5 162/3/5 161/3/5
f 165/2/5 163/2/5 162/2/5
f 166/3/5 164/3/5 163/3/5
f 166/2/5 163/2/5 165/2/5
f 167/3/5 165/3/5 161/3/5
f 167/3/5 166/3/5 165/3/5
f 168/3/5 166/3/5 167/3/5
f 169/4/5 168/4/5 167/4/5
f 170/4/5 168/4/5 169/4/5
f 171/1/5 170/1/5 169/1/5
f 172/4/5 168/4/5 170/4/5
f 172/1/5 170/1/5 171/1/5
f 173/4/5 172/4/5 171/4/5
f 174/3/5 166/3/5 168/3/5
f 174/4/5 172/4/5 173/4/5
f 174/4/5 168/4/5 172/4/5
f 175/3/5 174/3/5 173/3/5
f 176/3/5 174/3/5 175/3/5
f 177/3/5 175/3/5 173/3/5
f 178/2/5 176/2/5 175/2/5
f 178/3/5 175/3/5 177/3/5
f 179/3/5 174/3/5 176/3/5
f 179/2/5 176/2/5 178/2/5
f 180/3/5 164/3/5 166/3/5
f 180/3/5 174/3/5 179/3/5
f 180/3/5 166/3/5 174/3/5
f 181/3/6 182/3/6 188/3/6
f 182/2/6 183/2/6 188/2/6
f 183/3/6 184/3/6 189/3/6
f 188/2/6 183/2/6 189/2/6
f 184/2/6 185/2/6 190/2/6
f 189/3/6 184/3/6 190/3/6
f 185/3/6 186/3/6 191/3/6
f 190/2/6 185/2/6 191/2/6
f 191/3/6 186/3/6 192/3/6
f 192/3/6 186/3/6 193/3/6
f 186/2/6 187/2/6 194/2/6
f 193/3/6 186/3/6 194/3/6
f 194/2/6 187/2/6 195/2/6
f 189/3/6 190/3/6 196/3/6
f 181/3/6 188/3/6 196/3/6
f 188/3/6 189/3/6 196/3/6
f 190/3/6 191/3/6 196/3/6
f 191/3/6 192/3/6 196/3/6
f 192/2/6 193/2/6 197/2/6
f 196/3/6 192/3/6 197/3/6
f 194/3/6 195/3/6 198/3/6
f 197/2/6 193/2/6 198/2/6
f 193/3/6 194/3/6 198/3/6
f 198/3/6 195/3/6 199/3/6
f 199/3/6 195/3/6 200/3/6
f 200/3/6 195/3/6 201/3/6
f 199/3/6 200/3/6 202/3/6
f 200/2/6 201/2/6 202/2/6
f 202/2/6 201/2/6 203/2/6
f 199/3/6 202/3/6 204/3/6
f 202/3/6 203/3/6 204/3/6
f 204/3/6 203/3/6 205/3/6
f 199/3/6 204/3/6 206/3/6
f 204/2/6 205/2/6 206/2/6
f 206/2/6 205/2/6 207/2/6
f 199/3/6 206/3/6 208/3/6
f 206/3/6 207/3/6 208/3/6
f 208/3/6 207/3/6 209/3/6
f 199/3/6 208/3/6 210/3/6
f 208/2/6 209/2/6 210/2/6
f 210/2/6 209/2/6 211/2/6
f 199/3/6 210/3/6 212/3/6
f 210/3/6 211/3/6 212/3/6
f 212/3/6 211/3/6 213/3/6
f 199/3/6 212/3/6 214/3/6
f 212/2/6 213/2/6 214/2/6
f 214/2/6 213/2/6 215/2/6
f 199/3/6 214/3/6 219/3/6
f 214/3/6 215/3/6 219/3/6
f 216/3/6 217/3/6 220/3/6
f 217/2/6 218/2/6 221/2/6
f 220/3/6 217/3/6 221/3/6
f 218/3/6 219/3/6 222/3/6
f 221/2/6 218/2/6 222/2/6
f 222/3/6 219/3/6 223/3/6
f 223/3/6 219/3/6 224/3/6
f 224/3/6 219/3/6 225/3/6
f 225/3/6 219/3/6 226/3/6
f 216/3/6 220/3/6 227/3/6
f 220/2/6 221/2/6 228/2/6
f 227/3/6 220/3/6 228/3/6
f 221/3/6 222/3/6 229/3/6
f 228/2/6 221/2/6 229/2/6
f 222/3/6 223/3/6 229/3/6
f 223/2/6 224/2/6 230/2/6
f 229/3/6 223/3/6 230/3/6
f 224/3/6 225/3/6 231/3/6
f 230/2/6 224/2/6 231/2/6
f 225/2/6 226/2/6 232/2/6
f 231/3/6 225/3/6 232/3/6
f 226/3/6 219/3/6 233/3/6
f 232/2/6 226/2/6 233/2/6
f 219/3/6 215/3/6 234/3/6
f 233/3/6 219/3/6 234/3/6
f 235/4/6 236/4/6 237/4/6
f 237/4/6 236/4/6 238/4/6
f 237/1/6 238/1/6 239/1/6
f 238/4/6 236/4/6 240/4/6
f 239/1/6 238/1/6 240/1/6
f 239/4/6 240/4/6 241/4/6
f 240/4/6 236/4/6 242/4/6
f 241/4/6 240/4/6 242/4/6
