# MagicaVoxel @ Ephtracy

# material
mtllib Wall2.mtl
usemtl palette

# normals
vn -1 0 0
vn 1 0 0
vn 0 0 1
vn 0 0 -1
vn 0 -1 0
vn 0 1 0

# texcoords
vt 0.0566406 0.5
vt 0.306641 0.5
vt 0.310547 0.5
vt 0.970703 0.5
vt 0.974609 0.5

# verts
v -20 0 20
v -20 0 -14
v -20 0 -18
v -20 0 -20
v -20 2 -18
v -20 2 -20
v -20 21 20
v -20 21 -14
v -20 21 -18
v 18 2 20
v 18 2 -18
v 18 7 -8
v 18 7 -12
v 18 8 3
v 18 8 -0
v 18 8 -8
v 18 8 -12
v 18 9 6
v 18 9 3
v 18 9 -0
v 18 10 6
v 18 10 3
v 18 13 10
v 18 13 5
v 18 14 10
v 18 14 5
v 18 15 -4
v 18 15 -8
v 18 16 17
v 18 16 12
v 18 16 -4
v 18 16 -8
v 18 17 17
v 18 17 12
v 18 21 20
v 18 21 -18
v 20 0 20
v 20 0 -20
v 20 1 17
v 20 1 14
v 20 1 5
v 20 1 2
v 20 1 -6
v 20 1 -9
v 20 1 -12
v 20 1 -16
v 20 2 20
v 20 2 17
v 20 2 14
v 20 2 5
v 20 2 2
v 20 2 -6
v 20 2 -9
v 20 2 -12
v 20 2 -16
v 20 2 -20
v -20 0 20
v -20 21 20
v 14 0 20
v 14 21 20
v 18 0 20
v 18 2 20
v 18 21 20
v 20 0 20
v 20 2 20
v -20 2 -18
v -20 21 -18
v -14 2 -18
v -14 10 -18
v -14 11 -18
v -12 2 -18
v -11 16 -18
v -11 17 -18
v -9 10 -18
v -9 11 -18
v -7 6 -18
v -7 7 -18
v -7 16 -18
v -7 17 -18
v 0 6 -18
v 0 7 -18
v 0 13 -18
v 0 14 -18
v 7 13 -18
v 7 14 -18
v 9 16 -18
v 9 17 -18
v 12 9 -18
v 12 10 -18
v 13 16 -18
v 13 17 -18
v 14 9 -18
v 14 10 -18
v 14 11 -18
v 16 10 -18
v 16 11 -18
v 18 2 -18
v 18 21 -18
v -20 0 -20
v -20 2 -20
v -16 1 -20
v -16 2 -20
v -14 1 -20
v -14 2 -20
v -7 0 -20
v -7 1 -20
v -4 0 -20
v -4 1 -20
v 1 1 -20
v 1 2 -20
v 4 1 -20
v 4 2 -20
v 9 1 -20
v 9 2 -20
v 14 1 -20
v 14 2 -20
v 20 0 -20
v 20 2 -20
v -20 0 20
v 14 0 20
v 18 0 20
v 20 0 20
v -20 0 -14
v 14 0 -14
v -20 0 -18
v 18 0 -18
v -7 0 -19
v -4 0 -19
v -20 0 -20
v -7 0 -20
v -4 0 -20
v 20 0 -20
v 18 2 20
v 20 2 20
v 19 2 17
v 20 2 17
v 19 2 14
v 20 2 14
v 19 2 5
v 20 2 5
v 19 2 2
v 20 2 2
v 19 2 -6
v 20 2 -6
v 19 2 -9
v 20 2 -9
v 19 2 -12
v 20 2 -12
v 19 2 -16
v 20 2 -16
v -20 2 -18
v -14 2 -18
v -12 2 -18
v 18 2 -18
v -16 2 -19
v -14 2 -19
v -12 2 -19
v 1 2 -19
v 4 2 -19
v 9 2 -19
v 14 2 -19
v -20 2 -20
v -16 2 -20
v -14 2 -20
v 1 2 -20
v 4 2 -20
v 9 2 -20
v 14 2 -20
v 20 2 -20
v -20 21 20
v 14 21 20
v 18 21 20
v -20 21 -14
v 14 21 -14
v -20 21 -18
v 18 21 -18

# faces
f 5/4/1 3/4/1 2/4/1
f 5/3/1 4/3/1 3/3/1
f 6/3/1 4/3/1 5/3/1
f 7/1/1 2/1/1 1/1/1
f 8/4/1 5/4/1 2/4/1
f 8/1/1 2/1/1 7/1/1
f 9/4/1 5/4/1 8/4/1
f 10/4/2 11/4/2 12/4/2
f 12/4/2 11/4/2 13/4/2
f 10/4/2 12/4/2 14/4/2
f 14/4/2 12/4/2 15/4/2
f 12/5/2 13/5/2 16/5/2
f 15/4/2 12/4/2 16/4/2
f 13/4/2 11/4/2 17/4/2
f 16/5/2 13/5/2 17/5/2
f 10/4/2 14/4/2 18/4/2
f 14/5/2 15/5/2 19/5/2
f 18/4/2 14/4/2 19/4/2
f 15/4/2 16/4/2 20/4/2
f 19/5/2 15/5/2 20/5/2
f 16/4/2 17/4/2 20/4/2
f 18/5/2 19/5/2 21/5/2
f 10/4/2 18/4/2 21/4/2
f 19/4/2 20/4/2 22/4/2
f 21/5/2 19/5/2 22/5/2
f 10/4/2 21/4/2 23/4/2
f 21/4/2 22/4/2 23/4/2
f 23/4/2 22/4/2 24/4/2
f 10/4/2 23/4/2 25/4/2
f 23/5/2 24/5/2 25/5/2
f 24/4/2 22/4/2 26/4/2
f 25/5/2 24/5/2 26/5/2
f 20/4/2 17/4/2 27/4/2
f 26/4/2 22/4/2 27/4/2
f 25/4/2 26/4/2 27/4/2
f 22/4/2 20/4/2 27/4/2
f 27/4/2 17/4/2 28/4/2
f 10/4/2 25/4/2 29/4/2
f 25/4/2 27/4/2 29/4/2
f 29/4/2 27/4/2 30/4/2
f 27/5/2 28/5/2 31/5/2
f 30/4/2 27/4/2 31/4/2
f 28/4/2 17/4/2 32/4/2
f 31/5/2 28/5/2 32/5/2
f 29/5/2 30/5/2 33/5/2
f 10/4/2 29/4/2 33/4/2
f 30/4/2 31/4/2 34/4/2
f 33/5/2 30/5/2 34/5/2
f 31/4/2 32/4/2 34/4/2
f 10/4/2 33/4/2 35/4/2
f 33/4/2 34/4/2 35/4/2
f 34/4/2 32/4/2 36/4/2
f 35/4/2 34/4/2 36/4/2
f 17/4/2 11/4/2 36/4/2
f 32/4/2 17/4/2 36/4/2
f 37/3/2 38/3/2 39/3/2
f 39/3/2 38/3/2 40/3/2
f 40/3/2 38/3/2 41/3/2
f 41/3/2 38/3/2 42/3/2
f 42/3/2 38/3/2 43/3/2
f 43/3/2 38/3/2 44/3/2
f 44/3/2 38/3/2 45/3/2
f 45/3/2 38/3/2 46/3/2
f 37/3/2 39/3/2 47/3/2
f 39/2/2 40/2/2 48/2/2
f 47/3/2 39/3/2 48/3/2
f 40/3/2 41/3/2 49/3/2
f 48/2/2 40/2/2 49/2/2
f 41/2/2 42/2/2 50/2/2
f 49/3/2 41/3/2 50/3/2
f 42/3/2 43/3/2 51/3/2
f 50/2/2 42/2/2 51/2/2
f 43/2/2 44/2/2 52/2/2
f 51/3/2 43/3/2 52/3/2
f 44/3/2 45/3/2 53/3/2
f 52/2/2 44/2/2 53/2/2
f 45/2/2 46/2/2 54/2/2
f 53/3/2 45/3/2 54/3/2
f 46/3/2 38/3/2 55/3/2
f 54/2/2 46/2/2 55/2/2
f 55/3/2 38/3/2 56/3/2
f 59/1/3 58/1/3 57/1/3
f 60/1/3 58/1/3 59/1/3
f 61/4/3 60/4/3 59/4/3
f 62/4/3 60/4/3 61/4/3
f 63/4/3 60/4/3 62/4/3
f 64/3/3 62/3/3 61/3/3
f 65/3/3 62/3/3 64/3/3
f 66/4/4 67/4/4 68/4/4
f 68/4/4 67/4/4 69/4/4
f 69/4/4 67/4/4 70/4/4
f 68/4/4 69/4/4 71/4/4
f 70/4/4 67/4/4 72/4/4
f 72/4/4 67/4/4 73/4/4
f 71/4/4 69/4/4 74/4/4
f 69/5/4 70/5/4 74/5/4
f 70/4/4 72/4/4 75/4/4
f 74/5/4 70/5/4 75/5/4
f 71/4/4 74/4/4 76/4/4
f 74/4/4 75/4/4 76/4/4
f 76/4/4 75/4/4 77/4/4
f 72/5/4 73/5/4 78/5/4
f 77/4/4 75/4/4 78/4/4
f 75/4/4 72/4/4 78/4/4
f 73/4/4 67/4/4 79/4/4
f 78/5/4 73/5/4 79/5/4
f 76/5/4 77/5/4 80/5/4
f 71/4/4 76/4/4 80/4/4
f 77/4/4 78/4/4 81/4/4
f 80/5/4 77/5/4 81/5/4
f 78/4/4 79/4/4 81/4/4
f 81/4/4 79/4/4 82/4/4
f 82/4/4 79/4/4 83/4/4
f 80/4/4 81/4/4 84/4/4
f 81/4/4 82/4/4 84/4/4
f 82/5/4 83/5/4 84/5/4
f 83/4/4 79/4/4 85/4/4
f 84/5/4 83/5/4 85/5/4
f 84/4/4 85/4/4 86/4/4
f 85/4/4 79/4/4 86/4/4
f 79/4/4 67/4/4 87/4/4
f 86/4/4 79/4/4 87/4/4
f 84/4/4 86/4/4 88/4/4
f 80/4/4 84/4/4 88/4/4
f 88/4/4 86/4/4 89/4/4
f 86/5/4 87/5/4 90/5/4
f 89/4/4 86/4/4 90/4/4
f 87/4/4 67/4/4 91/4/4
f 90/5/4 87/5/4 91/5/4
f 88/5/4 89/5/4 92/5/4
f 80/4/4 88/4/4 92/4/4
f 89/4/4 90/4/4 93/4/4
f 92/5/4 89/5/4 93/5/4
f 90/4/4 91/4/4 93/4/4
f 93/4/4 91/4/4 94/4/4
f 92/4/4 93/4/4 95/4/4
f 93/5/4 94/5/4 95/5/4
f 94/4/4 91/4/4 96/4/4
f 95/5/4 94/5/4 96/5/4
f 71/4/4 80/4/4 97/4/4
f 80/4/4 92/4/4 97/4/4
f 95/4/4 96/4/4 97/4/4
f 92/4/4 95/4/4 97/4/4
f 96/4/4 91/4/4 98/4/4
f 97/4/4 96/4/4 98/4/4
f 91/4/4 67/4/4 98/4/4
f 99/3/4 100/3/4 101/3/4
f 101/3/4 100/3/4 102/3/4
f 99/3/4 101/3/4 103/3/4
f 101/2/4 102/2/4 103/2/4
f 103/2/4 102/2/4 104/2/4
f 99/3/4 103/3/4 105/3/4
f 103/3/4 104/3/4 105/3/4
f 105/3/4 104/3/4 106/3/4
f 105/2/4 106/2/4 107/2/4
f 106/3/4 104/3/4 108/3/4
f 107/2/4 106/2/4 108/2/4
f 107/3/4 108/3/4 109/3/4
f 108/3/4 104/3/4 109/3/4
f 109/3/4 104/3/4 110/3/4
f 107/3/4 109/3/4 111/3/4
f 109/2/4 110/2/4 111/2/4
f 111/2/4 110/2/4 112/2/4
f 107/3/4 111/3/4 113/3/4
f 111/3/4 112/3/4 113/3/4
f 113/3/4 112/3/4 114/3/4
f 107/3/4 113/3/4 115/3/4
f 113/2/4 114/2/4 115/2/4
f 115/2/4 114/2/4 116/2/4
f 107/3/4 115/3/4 117/3/4
f 115/3/4 116/3/4 117/3/4
f 117/3/4 116/3/4 118/3/4
f 123/1/5 120/1/5 119/1/5
f 124/4/5 121/4/5 120/4/5
f 124/1/5 120/1/5 123/1/5
f 125/4/5 124/4/5 123/4/5
f 126/3/5 122/3/5 121/3/5
f 126/4/5 124/4/5 125/4/5
f 126/4/5 121/4/5 124/4/5
f 127/3/5 126/3/5 125/3/5
f 128/3/5 126/3/5 127/3/5
f 129/3/5 127/3/5 125/3/5
f 130/2/5 128/2/5 127/2/5
f 130/3/5 127/3/5 129/3/5
f 131/3/5 126/3/5 128/3/5
f 131/2/5 128/2/5 130/2/5
f 132/3/5 122/3/5 126/3/5
f 132/3/5 126/3/5 131/3/5
f 133/3/6 134/3/6 135/3/6
f 135/3/6 134/3/6 136/3/6
f 133/3/6 135/3/6 137/3/6
f 135/2/6 136/2/6 137/2/6
f 137/2/6 136/2/6 138/2/6
f 133/3/6 137/3/6 139/3/6
f 137/3/6 138/3/6 139/3/6
f 139/3/6 138/3/6 140/3/6
f 133/3/6 139/3/6 141/3/6
f 139/2/6 140/2/6 141/2/6
f 141/2/6 140/2/6 142/2/6
f 133/3/6 141/3/6 143/3/6
f 141/3/6 142/3/6 143/3/6
f 143/3/6 142/3/6 144/3/6
f 133/3/6 143/3/6 145/3/6
f 143/2/6 144/2/6 145/2/6
f 145/2/6 144/2/6 146/2/6
f 133/3/6 145/3/6 147/3/6
f 145/3/6 146/3/6 147/3/6
f 147/3/6 146/3/6 148/3/6
f 133/3/6 147/3/6 149/3/6
f 147/2/6 148/2/6 149/2/6
f 149/2/6 148/2/6 150/2/6
f 133/3/6 149/3/6 154/3/6
f 149/3/6 150/3/6 154/3/6
f 151/3/6 152/3/6 155/3/6
f 152/2/6 153/2/6 156/2/6
f 155/3/6 152/3/6 156/3/6
f 153/3/6 154/3/6 157/3/6
f 156/2/6 153/2/6 157/2/6
f 157/3/6 154/3/6 158/3/6
f 158/3/6 154/3/6 159/3/6
f 159/3/6 154/3/6 160/3/6
f 160/3/6 154/3/6 161/3/6
f 151/3/6 155/3/6 162/3/6
f 155/2/6 156/2/6 163/2/6
f 162/3/6 155/3/6 163/3/6
f 156/3/6 157/3/6 164/3/6
f 163/2/6 156/2/6 164/2/6
f 157/3/6 158/3/6 164/3/6
f 158/2/6 159/2/6 165/2/6
f 164/3/6 158/3/6 165/3/6
f 159/3/6 160/3/6 166/3/6
f 165/2/6 159/2/6 166/2/6
f 160/2/6 161/2/6 167/2/6
f 166/3/6 160/3/6 167/3/6
f 161/3/6 154/3/6 168/3/6
f 167/2/6 161/2/6 168/2/6
f 154/3/6 150/3/6 169/3/6
f 168/3/6 154/3/6 169/3/6
f 170/1/6 171/1/6 173/1/6
f 171/4/6 172/4/6 174/4/6
f 173/1/6 171/1/6 174/1/6
f 173/4/6 174/4/6 175/4/6
f 174/4/6 172/4/6 176/4/6
f 175/4/6 174/4/6 176/4/6
